<svg width="62" height="59" viewBox="0 0 62 59" fill="none" xmlns="http://www.w3.org/2000/svg">
<path d="M44.6202 40.9431C36.9403 45.3306 32.5586 54.4222 31.1665 56.9637V17.0262C32.3755 14.8192 35.839 8.49571 41.759 4.19791C44.253 2.38738 45.4999 1.4821 47.0833 2.30753C48.6665 3.133 48.6665 4.95509 48.6665 8.59926V34.7507C48.6665 36.7192 48.6665 37.7035 48.2681 38.3951C47.8694 39.0868 46.7864 39.7057 44.6202 40.9431Z" stroke="white" stroke-width="2.5" stroke-linecap="round" stroke-linejoin="round"/>
<path d="M31.1667 16.4511C29.1632 14.3165 23.3551 9.24705 13.61 7.46963C8.67304 6.56917 6.20458 6.11894 4.10227 7.8446C2 9.57025 2 12.3725 2 17.9769V38.1183C2 43.2427 2 45.805 3.34925 47.4045C4.6985 49.0044 7.66898 49.5461 13.61 50.6297C18.906 51.5956 23.0392 53.1348 26.031 54.6814C28.9745 56.2029 30.4462 56.9638 31.1667 56.9638C31.8871 56.9638 33.3588 56.2029 36.3023 54.6814C39.2942 53.1348 43.4275 51.5956 48.7232 50.6297C54.6645 49.5461 57.6348 49.0044 58.9841 47.4045C60.3333 45.805 60.3333 43.2427 60.3333 38.1183V17.9769C60.3333 12.3725 60.3333 9.57025 58.231 7.8446C56.1287 6.11894 51.5833 7.46963 48.6667 9.63045" stroke="white" stroke-width="2.5" stroke-linecap="round" stroke-linejoin="round"/>
</svg>
