<svg xmlns="http://www.w3.org/2000/svg" width="51" height="46" viewBox="0 0 51 46" fill="none">
    <path d="M2.16699 11.3333C2.16699 8.06635 2.16699 6.43285 2.80278 5.18504C3.36205 4.08744 4.25443 3.19506 5.35203 2.63578C6.59985 2 8.23334 2 11.5003 2C14.7673 2 16.4008 2 17.6486 2.63578C18.7462 3.19506 19.6385 4.08744 20.1978 5.18504C20.8336 6.43285 20.8336 8.06635 20.8336 11.3333V34.6666C20.8336 37.9335 20.8336 39.567 20.1978 40.8149C19.6385 41.9125 18.7462 42.8048 17.6486 43.3641C16.4008 43.9999 14.7673 43.9999 11.5003 43.9999C8.23334 43.9999 6.59985 43.9999 5.35203 43.3641C4.25443 42.8048 3.36205 41.9125 2.80278 40.8149C2.16699 39.567 2.16699 37.9335 2.16699 34.6666V11.3333Z" stroke="#0D3151" stroke-width="2.5" stroke-linecap="round" stroke-linejoin="round"/>
    <path d="M11.5005 34.6665H11.5214" stroke="#8BC53F" stroke-width="2.5" stroke-linecap="round" stroke-linejoin="round"/>
    <path d="M2.16699 11.3333H20.8336" stroke="#0D3151" stroke-width="2.5" stroke-linecap="round" stroke-linejoin="round"/>
    <path d="M24.2137 14.293C23.3856 11.1895 22.9717 9.63782 23.2568 8.29062C23.5076 7.1056 24.1255 6.03075 25.0222 5.2201C26.0414 4.29851 27.5868 3.88273 30.6772 3.05116C33.7677 2.21961 35.3131 1.80383 36.6545 2.09018C37.8347 2.34206 38.905 2.96263 39.7124 3.86295C40.63 4.88646 41.0442 6.43819 41.8723 9.54161L47.7868 31.707C48.6149 34.8103 49.0289 36.362 48.7437 37.7092C48.4929 38.8943 47.875 39.9691 46.9783 40.7799C45.9591 41.7013 44.4138 42.1171 41.3233 42.9487C38.2328 43.7803 36.6874 44.1961 35.346 43.9098C34.1658 43.6578 33.0955 43.0371 32.2882 42.137C31.3705 41.1133 30.9563 39.5617 30.1282 36.4583L24.2137 14.293Z" stroke="#8BC53F" stroke-width="2.5" stroke-linecap="round" stroke-linejoin="round"/>
    <path d="M38.9897 33.9556L39.01 33.9502" stroke="#8BC53F" stroke-width="2.5" stroke-linecap="round" stroke-linejoin="round"/>
    <path d="M25.5005 13.6671L40.6673 9" stroke="#8BC53F" stroke-width="2.5" stroke-linecap="round" stroke-linejoin="round"/>
  </svg>