<svg xmlns="http://www.w3.org/2000/svg" width="20" height="21" viewBox="0 0 20 21" fill="none">
    <g clip-path="url(#clip0_417_2328)">
      <path d="M6.66649 14.6667L9.99982 18M9.99982 18L13.3332 14.6667M9.99982 18V10.5M17.3998 15.575C18.1243 15.0655 18.6676 14.3385 18.9509 13.4993C19.2342 12.6601 19.2427 11.7525 18.9752 10.9082C18.7076 10.0639 18.178 9.32675 17.4632 8.80381C16.7484 8.28087 15.8855 7.99931 14.9998 8.00001H13.9498C13.6992 7.02323 13.2302 6.11605 12.5783 5.34674C11.9263 4.57743 11.1083 3.96606 10.1858 3.55863C9.26338 3.15121 8.26053 2.95836 7.25276 2.9946C6.245 3.03084 5.25858 3.29523 4.36778 3.76786C3.47698 4.24049 2.70501 4.90905 2.10998 5.7232C1.51495 6.53735 1.11237 7.47588 0.93254 8.46813C0.752714 9.46038 0.800331 10.4805 1.07181 11.4517C1.34328 12.4229 1.83154 13.3198 2.49982 14.075" stroke="url(#paint0_linear_417_2328)" stroke-width="1.66667" stroke-linecap="round" stroke-linejoin="round"/>
    </g>
    <defs>
      <linearGradient id="paint0_linear_417_2328" x1="18.7983" y1="3.42853" x2="1.44748" y2="18.3923" gradientUnits="userSpaceOnUse">
        <stop stop-color="#80AB40"/>
        <stop offset="1" stop-color="#027163"/>
      </linearGradient>
      <clipPath id="clip0_417_2328">
        <rect width="20" height="20" fill="white" transform="translate(0 0.5)"/>
      </clipPath>
    </defs>
  </svg>