<svg xmlns="http://www.w3.org/2000/svg" width="53" height="74" viewBox="0 0 53 74" fill="none">
    <path d="M50.8833 12.451L26.5 2.00098L2.11664 12.451L14.3083 17.676V24.6426C14.3083 24.6426 18.3722 22.901 26.5 22.901C34.6276 22.901 38.6916 24.6426 38.6916 24.6426V17.676L50.8833 12.451ZM50.8833 12.451V26.3843" stroke="#8BC53F" stroke-width="3.5" stroke-linecap="round" stroke-linejoin="round"/>
    <path d="M38.6917 24.6423V28.1257C38.6917 34.859 33.2334 40.3173 26.5001 40.3173C19.7668 40.3173 14.3084 34.859 14.3084 28.1257V24.6423" stroke="#8BC53F" stroke-width="3.5" stroke-linecap="round" stroke-linejoin="round"/>
    <path d="M11.8092 53.2175C7.97624 55.6018 -2.0736 60.4701 4.04742 66.5618C7.03751 69.5376 10.3677 71.6659 14.5545 71.6659H38.4454C42.6323 71.6659 45.9624 69.5376 48.9525 66.5618C55.0734 60.4701 45.0236 55.6018 41.1906 53.2175C32.2025 47.6264 20.7974 47.6264 11.8092 53.2175Z" stroke="#8BC53F" stroke-width="3.5" stroke-linecap="round" stroke-linejoin="round"/>
  </svg>