<svg xmlns="http://www.w3.org/2000/svg" width="22" height="20" viewBox="0 0 22 20" fill="none">
    <path d="M13 7H17" stroke="#E5E7EB" stroke-width="1.5" stroke-linecap="round"/>
    <path d="M13 10.5H16" stroke="#E5E7EB" stroke-width="1.5" stroke-linecap="round"/>
    <path d="M16 1H6C3.23858 1 1 3.23858 1 6V14C1 16.7614 3.23858 19 6 19H16C18.7614 19 21 16.7614 21 14V6C21 3.23858 18.7614 1 16 1Z" stroke="#D0D7DE" stroke-width="1.5" stroke-linejoin="round"/>
    <path d="M4 14C5.20831 11.4189 9.7122 11.2491 11 14" stroke="#E5E7EB" stroke-width="1.5" stroke-linecap="round" stroke-linejoin="round"/>
    <path d="M9.5 7C9.5 8.10452 8.60457 9.00002 7.5 9.00002C6.39543 9.00002 5.5 8.10452 5.5 7C5.5 5.89543 6.39543 5 7.5 5C8.60457 5 9.5 5.89543 9.5 7Z" stroke="#E5E7EB" stroke-width="1.5"/>
  </svg>