<svg xmlns="http://www.w3.org/2000/svg" width="72" height="74" viewBox="0 0 72 74" fill="none">
    <path d="M49.6845 71.6667V69.925C49.6845 66.0773 52.8734 62.9601 56.261 61.255C59.5531 59.5983 62.3232 56.8663 62.6729 53.6624L63.3691 47.2833L70.2113 43.8L61.6585 30.7375C61.6585 14.8662 49.0219 2 33.4342 2C29.4862 2 25.7275 2.82534 22.3155 4.31579M17.1838 54.2368V71.6667M17.1838 54.2368C12.5286 50.8935 8.9111 46.1519 6.92041 40.6127M17.1838 54.2368C19.7519 56.0812 22.6358 57.5003 25.7366 58.3934" stroke="#8BC53F" stroke-width="3.5" stroke-linecap="round" stroke-linejoin="round"/>
    <path d="M4.35454 6.35396L15.4732 14.1915H29.1577M6.92039 6.35396C6.92039 7.79679 5.77161 8.96646 4.35454 8.96646C2.93748 8.96646 1.7887 7.79679 1.7887 6.35396C1.7887 4.91112 2.93748 3.74146 4.35454 3.74146C5.77161 3.74146 6.92039 4.91112 6.92039 6.35396Z" stroke="#8BC53F" stroke-width="3.5" stroke-linecap="round" stroke-linejoin="round"/>
    <path d="M4.35454 25.5124H29.1577M6.92039 25.5124C6.92039 26.9552 5.77161 28.1249 4.35454 28.1249C2.93748 28.1249 1.7887 26.9552 1.7887 25.5124C1.7887 24.0696 2.93748 22.8999 4.35454 22.8999C5.77161 22.8999 6.92039 24.0696 6.92039 25.5124Z" stroke="#8BC53F" stroke-width="3.5" stroke-linecap="round" stroke-linejoin="round"/>
  </svg>