<svg width="69" height="51" viewBox="0 0 69 51" fill="none" xmlns="http://www.w3.org/2000/svg">
<path d="M60.4979 43.4167C62.7146 43.4167 64.4778 42.0219 66.0608 40.0712C69.3016 36.0783 63.9808 32.8874 61.9513 31.3249C59.8885 29.7362 57.5851 28.8363 55.2498 28.6251M52.2915 22.7084C56.3761 22.7084 59.6873 19.3972 59.6873 15.3126C59.6873 11.228 56.3761 7.91675 52.2915 7.91675" stroke="#141B34" stroke-width="2.5" stroke-linecap="round"/>
<path d="M8.58514 43.4167C6.36843 43.4167 4.60532 42.0219 3.02223 40.0712C-0.218481 36.0783 5.10232 32.8874 7.13165 31.3249C9.19459 29.7362 11.498 28.8363 13.8333 28.6251M15.3125 22.7084C11.2279 22.7084 7.91667 19.3972 7.91667 15.3126C7.91667 11.228 11.2279 7.91675 15.3125 7.91675" stroke="#141B34" stroke-width="2.5" stroke-linecap="round"/>
<path d="M22.956 34.8706C19.9332 36.7396 12.0077 40.5562 16.8349 45.3318C19.1929 47.6647 21.8192 49.3333 25.121 49.3333H43.962C47.2638 49.3333 49.8899 47.6647 52.248 45.3318C57.0751 40.5562 49.1497 36.7396 46.1269 34.8706C39.0385 30.4875 30.0442 30.4875 22.956 34.8706Z" stroke="#141B34" stroke-width="2.5" stroke-linecap="round" stroke-linejoin="round"/>
<path d="M44.8956 12.3542C44.8956 18.0726 40.2599 22.7083 34.5415 22.7083C28.823 22.7083 24.1873 18.0726 24.1873 12.3542C24.1873 6.63571 28.823 2 34.5415 2C40.2599 2 44.8956 6.63571 44.8956 12.3542Z" stroke="#141B34" stroke-width="2.5"/>
</svg>
