<svg xmlns="http://www.w3.org/2000/svg" width="67" height="74" viewBox="0 0 67 74" fill="none">
    <path d="M24.5358 8.38519L23.9737 5.06606C23.7257 3.60202 23.6017 2.87 23.0725 2.435C22.5432 2 21.7766 2 20.2433 2H19.2324C17.6991 2 16.9324 2 16.4032 2.435C15.874 2.87 15.75 3.60202 15.5021 5.06606L14.9399 8.38519C13.7514 8.84959 12.6489 9.48143 11.6625 10.2511L8.52615 9.09478C7.07953 8.56145 6.35625 8.2948 5.69765 8.52397C5.03906 8.7531 4.65694 9.40442 3.89273 10.707L3.33369 11.6599C2.58975 12.928 2.2178 13.562 2.33951 14.2138C2.46118 14.8657 3.03889 15.3337 4.19432 16.2698L6.86534 18.4337C6.77609 19.0389 6.72994 19.6579 6.72994 20.2875C6.72994 20.9194 6.77644 21.5406 6.86631 22.1479L4.2016 24.3068C3.04617 25.2429 2.46846 25.7109 2.34676 26.3627C2.22505 27.0145 2.59703 27.6486 3.34093 28.9166L3.89997 29.8695C4.66418 31.1722 5.0463 31.8233 5.7049 32.0525C6.36349 32.2817 7.08681 32.0152 8.5334 31.4819L11.6661 30.3268C12.6516 31.0952 13.7528 31.7261 14.9399 32.1897L15.502 35.509C15.75 36.973 15.874 37.7049 16.4032 38.1399C16.9324 38.575 17.6991 38.575 19.2324 38.575H20.2433C21.7766 38.575 22.5432 38.575 23.0725 38.1399C23.6017 37.7049 23.7257 36.973 23.9737 35.509L24.5358 32.1897C25.7217 31.7264 26.822 31.0963 27.8068 30.3289L30.9334 31.4819C32.38 32.0152 33.1035 32.2817 33.7619 32.0525C34.4206 31.8233 34.8027 31.1722 35.5669 29.8695L36.126 28.9166C36.8697 27.6486 37.2417 27.0145 37.1201 26.3627C36.9986 25.7109 36.4207 25.2429 35.2653 24.3068L32.6085 22.1543C32.6987 21.5449 32.7458 20.9216 32.7458 20.2875C32.7458 19.6557 32.6991 19.0346 32.6096 18.4273L35.2726 16.2698C36.428 15.3337 37.0055 14.8657 37.1275 14.2138C37.249 13.562 36.877 12.928 36.1333 11.6599L35.5742 10.707C34.81 9.40442 34.4279 8.7531 33.7692 8.52397C33.1105 8.2948 32.3873 8.56145 30.9407 9.09478L27.8102 10.2489C26.8248 9.48022 25.7232 8.84914 24.5358 8.38519Z" stroke="#8BC53F" stroke-width="3.5" stroke-linejoin="round"/>
    <path d="M52.4025 41.4766L51.8403 38.1573C51.5923 36.6933 51.4683 35.9614 50.9392 35.5264C50.4097 35.0913 49.6434 35.0913 48.11 35.0913H47.0992C45.5658 35.0913 44.7991 35.0913 44.27 35.5264C43.7405 35.9614 43.6165 36.6933 43.3685 38.1573L42.8066 41.4766C41.6181 41.9409 40.5157 42.5728 39.5292 43.3423L36.3928 42.1862C34.9462 41.6529 34.223 41.386 33.5643 41.6152C32.9056 41.8444 32.5235 42.4958 31.7593 43.7983L31.2002 44.7513C30.4565 46.0192 30.0845 46.6532 30.206 47.3053C30.328 47.957 30.9055 48.4252 32.0609 49.3611L34.7319 51.525C34.6428 52.1304 34.5964 52.7494 34.5964 53.3788C34.5964 54.0107 34.6431 54.6318 34.733 55.2393L32.0682 57.3982C30.9128 58.3342 30.3349 58.8024 30.2134 59.4541C30.0918 60.1058 30.4638 60.7398 31.2075 62.0077L31.7666 62.9608C32.5308 64.2635 32.9129 64.9146 33.5716 65.1438C34.23 65.373 34.9535 65.1065 36.4001 64.5732L39.5327 63.4181C40.5181 64.1865 41.6195 64.8174 42.8066 65.281L43.3685 68.6003C43.6165 70.0643 43.7405 70.7962 44.27 71.2312C44.7991 71.6663 45.5658 71.6663 47.0992 71.6663H48.11C49.6434 71.6663 50.4097 71.6663 50.9392 71.2312C51.4683 70.7962 51.5923 70.0643 51.8403 68.6003L52.4025 65.281C53.5883 64.8177 54.6886 64.1876 55.6734 63.4202L58.8 64.5732C60.2466 65.1065 60.9701 65.373 61.6285 65.1438C62.2872 64.9146 62.6693 64.2635 63.4336 62.9608L63.9926 62.0077C64.7363 60.7398 65.1083 60.1058 64.9868 59.4541C64.8652 58.8024 64.2873 58.3342 63.1319 57.3982L60.4752 55.2455C60.5654 54.6363 60.6124 54.0128 60.6124 53.3788C60.6124 52.7469 60.5657 52.1259 60.4762 51.5187L63.1392 49.3611C64.2946 48.4252 64.8722 47.957 64.9941 47.3053C65.1157 46.6532 64.7436 46.0192 63.9999 44.7513L63.4409 43.7983C62.6766 42.4958 62.2945 41.8444 61.6358 41.6152C60.9771 41.386 60.254 41.6529 58.8073 42.1862L55.6769 43.3402C54.6914 42.5714 53.5897 41.9406 52.4025 41.4766Z" stroke="#8BC53F" stroke-width="3.5" stroke-linejoin="round"/>
    <path d="M22.3458 20.2875C22.3458 21.7304 21.1762 22.9 19.7333 22.9C18.2905 22.9 17.1208 21.7304 17.1208 20.2875C17.1208 18.8447 18.2905 17.675 19.7333 17.675C21.1762 17.675 22.3458 18.8447 22.3458 20.2875Z" stroke="#8BC53F" stroke-width="3.5" stroke-linejoin="round"/>
    <path d="M50.2127 53.3789C50.2127 54.8217 49.043 55.9914 47.6002 55.9914C46.1574 55.9914 44.9877 54.8217 44.9877 53.3789C44.9877 51.9361 46.1574 50.7664 47.6002 50.7664C49.043 50.7664 50.2127 51.9361 50.2127 53.3789Z" stroke="#8BC53F" stroke-width="3.5" stroke-linejoin="round"/>
  </svg>