<svg xmlns="http://www.w3.org/2000/svg" width="34" height="46" viewBox="0 0 34 46" fill="none">
    <path d="M32 8.00059L17 1.57202L2 8.00059L9.5 11.2149V15.5006C9.5 15.5006 12 14.4292 17 14.4292C21.9999 14.4292 24.5 15.5006 24.5 15.5006V11.2149L32 8.00059ZM32 8.00059V16.572" stroke="#0D3151" stroke-width="2.5" stroke-linecap="round" stroke-linejoin="round"/>
    <path d="M24.5 15.5005V17.6433C24.5 21.7855 21.1421 25.1433 17 25.1433C12.8579 25.1433 9.5 21.7855 9.5 17.6433V15.5005" stroke="#0D3151" stroke-width="2.5" stroke-linecap="round" stroke-linejoin="round"/>
    <path d="M7.96263 33.0791C5.60468 34.5459 -0.577725 37.5408 3.18777 41.2882C5.0272 43.1189 7.07583 44.4281 9.65146 44.4281H24.3485C26.9242 44.4281 28.9728 43.1189 30.8122 41.2882C34.5776 37.5408 28.3953 34.5459 26.0373 33.0791C20.5081 29.6396 13.4919 29.6396 7.96263 33.0791Z" stroke="#8BC53F" stroke-width="2.5" stroke-linecap="round" stroke-linejoin="round"/>
  </svg>