<?xml version="1.0" encoding="utf-8"?><svg xmlns="http://www.w3.org/2000/svg" xmlns:xlink="http://www.w3.org/1999/xlink"><symbol viewBox="0 0 219.151 219.151" xml:space="preserve" id="back" xmlns="http://www.w3.org/2000/svg"><path d="M109.576 219.151c60.419 0 109.573-49.156 109.573-109.576C219.149 49.156 169.995 0 109.576 0S.002 49.156.002 109.575c0 60.42 49.155 109.576 109.574 109.576zm0-204.151c52.148 0 94.573 42.426 94.574 94.575 0 52.149-42.425 94.575-94.574 94.576-52.148-.001-94.573-42.427-94.573-94.577C15.003 57.427 57.428 15 109.576 15z"/><path d="M94.861 156.507a7.502 7.502 0 0 0 10.606 0 7.499 7.499 0 0 0-.001-10.608l-28.82-28.819 83.457-.008a7.5 7.5 0 0 0-.001-15l-83.46.008 28.827-28.825a7.5 7.5 0 0 0-10.607-10.608l-41.629 41.628a7.495 7.495 0 0 0-2.197 5.303 7.51 7.51 0 0 0 2.198 5.305l41.627 41.624z"/></symbol><symbol fill="none" viewBox="0 0 12 8" id="below-arrow" xmlns="http://www.w3.org/2000/svg"><path d="m1 1.5 5 5 5-5" stroke="#475467" stroke-width="1.67" stroke-linecap="round" stroke-linejoin="round"/></symbol><symbol viewBox="-0.5 0 25 25" fill="none" id="close" xmlns="http://www.w3.org/2000/svg"><path d="m3 21.32 18-18M3 3.32l18 18" stroke="#475467" stroke-width="1.5" stroke-linecap="round" stroke-linejoin="round"/></symbol><symbol fill="none" viewBox="0 0 20 21" id="download" xmlns="http://www.w3.org/2000/svg"><g clip-path="url(#da)"><path d="M6.666 14.667 10 18m0 0 3.333-3.333M10 18v-7.5m7.4 5.075A4.167 4.167 0 0 0 15 8h-1.05A6.667 6.667 0 1 0 2.5 14.075" stroke="url(#db)" stroke-width="1.667" stroke-linecap="round" stroke-linejoin="round"/></g><defs><linearGradient id="db" x1="18.798" y1="3.429" x2="1.447" y2="18.392" gradientUnits="userSpaceOnUse"><stop stop-color="#80AB40"/><stop offset="1" stop-color="#027163"/></linearGradient><clipPath id="da"><path fill="#fff" transform="translate(0 .5)" d="M0 0h20v20H0z"/></clipPath></defs></symbol><symbol fill="none" viewBox="0 0 53 74" id="graduate" xmlns="http://www.w3.org/2000/svg"><path d="M50.883 12.451 26.5 2.001 2.117 12.451l12.191 5.225v6.967S18.372 22.9 26.5 22.9s12.192 1.742 12.192 1.742v-6.967l12.191-5.225Zm0 0v13.933" stroke="#8BC53F" stroke-width="3.5" stroke-linecap="round" stroke-linejoin="round"/><path d="M38.692 24.642v3.484c0 6.733-5.459 12.191-12.192 12.191-6.733 0-12.192-5.458-12.192-12.191v-3.484M11.81 53.218C7.975 55.602-2.075 60.47 4.046 66.561c2.99 2.976 6.32 5.104 10.508 5.104h23.89c4.187 0 7.517-2.128 10.508-5.104 6.12-6.092-3.93-10.96-7.762-13.344a27.83 27.83 0 0 0-29.382 0Z" stroke="#8BC53F" stroke-width="3.5" stroke-linecap="round" stroke-linejoin="round"/></symbol><symbol fill="none" viewBox="0 0 72 74" id="knowledge" xmlns="http://www.w3.org/2000/svg"><path d="M49.684 71.667v-1.742c0-3.848 3.19-6.965 6.577-8.67 3.292-1.657 6.062-4.389 6.412-7.593l.696-6.379 6.842-3.483-8.553-13.062C61.658 14.866 49.022 2 33.434 2c-3.948 0-7.706.825-11.118 2.316m-5.132 49.92v17.43m0-17.43A28.761 28.761 0 0 1 6.92 40.614m10.264 13.624a27.896 27.896 0 0 0 8.553 4.156" stroke="#8BC53F" stroke-width="3.5" stroke-linecap="round" stroke-linejoin="round"/><path d="m4.355 6.354 11.118 7.837h13.685M6.92 6.354c0 1.443-1.148 2.612-2.565 2.612-1.418 0-2.566-1.17-2.566-2.612 0-1.443 1.148-2.613 2.566-2.613 1.417 0 2.565 1.17 2.565 2.613ZM4.355 25.512h24.803m-22.238 0c0 1.443-1.148 2.613-2.565 2.613-1.418 0-2.566-1.17-2.566-2.613 0-1.442 1.148-2.612 2.566-2.612 1.417 0 2.565 1.17 2.565 2.612Z" stroke="#8BC53F" stroke-width="3.5" stroke-linecap="round" stroke-linejoin="round"/></symbol><symbol viewBox="0 0 24 24" fill="none" id="menu" xmlns="http://www.w3.org/2000/svg"><path d="M4 18h16M4 12h16M4 6h16" stroke="#475467" stroke-width="2" stroke-linecap="round"/></symbol><symbol fill="none" viewBox="0 0 24 24" id="play" xmlns="http://www.w3.org/2000/svg"><path d="M12 22c5.523 0 10-4.477 10-10S17.523 2 12 2 2 6.477 2 12s4.477 10 10 10Z" stroke="#344054" stroke-width="2" stroke-linecap="round" stroke-linejoin="round"/><path d="m10 8 6 4-6 4V8Z" stroke="#344054" stroke-width="2" stroke-linecap="round" stroke-linejoin="round"/></symbol><symbol fill="none" viewBox="0 0 20 20" id="search" xmlns="http://www.w3.org/2000/svg"><path d="m17.5 17.5-3.625-3.625m1.958-4.708a6.667 6.667 0 1 1-13.333 0 6.667 6.667 0 0 1 13.333 0Z" stroke="#667085" stroke-width="1.667" stroke-linecap="round" stroke-linejoin="round"/></symbol><symbol fill="none" viewBox="0 0 67 74" id="settings" xmlns="http://www.w3.org/2000/svg"><path d="m24.536 8.385-.562-3.319c-.248-1.464-.372-2.196-.901-2.631C22.543 2 21.777 2 20.242 2h-1.01c-1.534 0-2.3 0-2.83.435-.529.435-.653 1.167-.9 2.631l-.563 3.32a13.047 13.047 0 0 0-3.277 1.865L8.525 9.095c-1.446-.534-2.17-.8-2.828-.571-.659.23-1.041.88-1.805 2.183l-.56.953c-.743 1.268-1.115 1.902-.993 2.554.121.652.699 1.12 1.854 2.056l2.671 2.164a12.7 12.7 0 0 0 .001 3.714l-2.664 2.159c-1.156.936-1.734 1.404-1.855 2.056-.122.652.25 1.286.994 2.554l.559.952c.764 1.303 1.146 1.954 1.805 2.184.658.229 1.382-.038 2.828-.571l3.133-1.155c.986.768 2.087 1.4 3.274 1.863l.562 3.319c.248 1.464.372 2.196.901 2.63.53.436 1.296.436 2.83.436h1.01c1.534 0 2.3 0 2.83-.435.529-.435.653-1.167.9-2.631l.563-3.32a13.045 13.045 0 0 0 3.27-1.86l3.127 1.153c1.447.533 2.17.8 2.829.57.659-.229 1.04-.88 1.805-2.183l.559-.952c.744-1.268 1.116-1.902.994-2.554-.121-.652-.7-1.12-1.855-2.056l-2.657-2.153a12.743 12.743 0 0 0 .002-3.727l2.663-2.157c1.155-.936 1.732-1.404 1.854-2.056.122-.652-.25-1.286-.994-2.554l-.559-.953c-.764-1.303-1.146-1.954-1.805-2.183-.658-.23-1.382.037-2.828.57l-3.13 1.155a13.04 13.04 0 0 0-3.275-1.864ZM52.403 41.477l-.563-3.32c-.248-1.464-.372-2.196-.9-2.63-.53-.436-1.297-.436-2.83-.436H47.1c-1.534 0-2.3 0-2.83.435-.53.435-.654 1.167-.902 2.631l-.561 3.32a13.05 13.05 0 0 0-3.278 1.865l-3.136-1.156c-1.447-.533-2.17-.8-2.829-.57-.658.228-1.04.88-1.805 2.182l-.559.953c-.744 1.268-1.116 1.902-.994 2.554.122.652.7 1.12 1.855 2.056l2.67 2.164a12.726 12.726 0 0 0 .002 3.714l-2.665 2.16c-1.155.935-1.733 1.403-1.855 2.055-.121.652.25 1.286.994 2.554l.56.953c.764 1.302 1.146 1.954 1.805 2.183.658.229 1.381-.038 2.828-.57l3.133-1.156c.985.768 2.087 1.4 3.274 1.863l.561 3.32c.248 1.463.372 2.195.902 2.63.53.435 1.296.435 2.83.435h1.01c1.533 0 2.3 0 2.83-.435.528-.435.652-1.167.9-2.63l.563-3.32a13.046 13.046 0 0 0 3.27-1.86l3.127 1.152c1.447.534 2.17.8 2.829.57.658-.228 1.04-.88 1.805-2.182l.559-.953c.743-1.268 1.115-1.902.994-2.554-.122-.652-.7-1.12-1.855-2.056l-2.657-2.153a12.741 12.741 0 0 0 .001-3.726l2.663-2.158c1.156-.936 1.733-1.404 1.855-2.056.122-.652-.25-1.286-.994-2.554l-.56-.953c-.763-1.302-1.145-1.954-1.804-2.183-.659-.229-1.382.038-2.829.571l-3.13 1.154a13.043 13.043 0 0 0-3.274-1.863Z" stroke="#8BC53F" stroke-width="3.5" stroke-linejoin="round"/><path d="M22.346 20.288a2.612 2.612 0 1 1-5.225 0 2.612 2.612 0 0 1 5.225 0ZM50.213 53.379a2.613 2.613 0 1 1-5.225 0 2.613 2.613 0 0 1 5.225 0Z" stroke="#8BC53F" stroke-width="3.5" stroke-linejoin="round"/></symbol><symbol fill="none" viewBox="0 0 74 74" id="task" xmlns="http://www.w3.org/2000/svg"><path d="M47.783 3.595A34.818 34.818 0 0 0 37.333 2C18.095 2 2.5 17.595 2.5 36.833s15.595 34.834 34.833 34.834S72.167 56.07 72.167 36.833c0-3.64-.56-7.15-1.595-10.45" stroke="#8BC53F" stroke-width="3.5" stroke-linecap="round"/><path d="m25.142 28.125 12.192 12.191 31.35-34.833" stroke="#8BC53F" stroke-width="3.5" stroke-linecap="round" stroke-linejoin="round"/></symbol><symbol fill="none" viewBox="0 0 24 24" id="x-social" xmlns="http://www.w3.org/2000/svg"><path fill-rule="evenodd" clip-rule="evenodd" d="m15.945 23-5.549-7.91L3.449 23H.509l8.583-9.769L.51 1h7.546l5.23 7.455L19.839 1h2.94l-8.185 9.316L23.491 23h-7.546Zm3.273-2.23H17.24L4.718 3.23h1.98l5.014 7.023.867 1.219 6.64 9.298Z" fill="#fff"/></symbol><symbol fill="none" viewBox="0 0 24 24" id="youtube" xmlns="http://www.w3.org/2000/svg"><path d="M23.76 7.2s-.233-1.655-.955-2.381c-.914-.956-1.936-.961-2.405-1.017-3.356-.244-8.395-.244-8.395-.244h-.01s-5.039 0-8.395.244c-.469.056-1.49.06-2.405 1.017C.473 5.545.244 7.2.244 7.2S0 9.145 0 11.086v1.819c0 1.94.24 3.886.24 3.886s.233 1.654.95 2.38c.915.957 2.115.924 2.65 1.027 1.92.183 8.16.24 8.16.24s5.044-.01 8.4-.249c.469-.056 1.49-.06 2.405-1.017.722-.727.956-2.381.956-2.381S24 14.85 24 12.905v-1.819c0-1.94-.24-3.886-.24-3.886ZM9.52 15.113V8.367l6.483 3.385-6.483 3.36Z" fill="#E4E7EC"/></symbol></svg>