<svg xmlns="http://www.w3.org/2000/svg" width="54" height="46" viewBox="0 0 54 46" fill="none">
    <path d="M39.4076 38.7669L36.0278 42.1335L39.4076 45.5002L42.7873 42.1335L39.4076 38.7669Z" fill="#8BC53F"/>
    <path d="M46.2117 38.7672L42.8319 42.1338L46.2117 45.5004L49.5914 42.1338L46.2117 38.7672Z" fill="#8BC53F"/>
    <path d="M49.1887 4.32202H44.4091V9.08316H49.1887V4.32202Z" fill="#8BC53F"/>
    <path d="M53.9999 9.1145H49.2202V13.8756H53.9999V9.1145Z" fill="#8BC53F"/>
    <path d="M15.2769 27.7965C14.9299 28.0777 14.5956 28.3076 14.2708 28.4898C13.3429 29.0107 12.4915 29.1463 11.6495 28.9886C10.2273 28.7208 8.73614 27.6318 6.93704 26.1354L3.877 23.5889C1.28908 21.4359 0.778386 18.8284 1.45853 16.6364C1.77756 15.6073 2.35661 14.6662 3.10337 13.9013C3.84778 13.1389 4.75814 12.5545 5.74271 12.2384C7.70074 11.6092 9.97839 12.051 11.8587 14.2803L14.5045 17.4024L15.2769 18.3133L16.0476 17.4029L15.2758 16.492L12.7585 13.5242C10.5165 10.8677 7.76443 10.3544 5.3816 11.1197C4.21005 11.4957 3.13258 12.1849 2.2567 13.0824C1.38315 13.977 0.705347 15.0817 0.329634 16.2912C-0.479054 18.9011 0.102337 21.9825 3.11856 24.4917L6.1786 27.0381C8.11618 28.6498 9.747 29.8267 11.4316 30.1439C12.6925 30.3814 13.9342 30.1428 15.2764 29.2581C15.6047 29.0421 15.9395 28.7866 16.282 28.4898C15.9571 28.3076 15.6228 28.0783 15.2764 27.7965H15.2769Z" fill="#8BC53F"/>
    <path d="M30.223 16.2912C29.8473 15.0817 29.1695 13.9764 28.2959 13.0823C27.4201 12.1854 26.3426 11.4963 25.171 11.1197C22.7876 10.3543 20.0361 10.8682 17.7935 13.5229L15.2763 16.4925L14.5044 17.4029L9.60438 23.1832C9.39811 23.4247 9.42382 23.7844 9.6558 23.9963L13.6566 27.9228C13.864 28.1265 14.0685 28.3157 14.2707 28.4897C14.6131 28.7865 14.9479 29.0421 15.2769 29.258C16.6196 30.1427 17.8601 30.3808 19.1211 30.1439C20.8062 29.8267 22.4365 28.6498 24.374 27.0381L27.4341 24.4916C30.4503 21.9824 31.0323 18.9005 30.223 16.2912ZM26.6762 23.5889L23.6162 26.1353C21.8171 27.6318 20.3259 28.7208 18.9037 28.9885C18.0617 29.1468 17.2104 29.0112 16.2825 28.4897C15.9576 28.3075 15.6234 28.0782 15.2769 27.7965C15.0198 27.5887 14.7557 27.3518 14.484 27.0846L10.8589 23.5266L15.2769 18.3132L16.0476 17.4029L18.6939 14.2796C20.5743 12.0504 22.8519 11.6086 24.8099 12.2378C25.7945 12.5544 26.7043 13.1382 27.4493 13.9007C28.1966 14.6655 28.7751 15.6067 29.0941 16.6357C29.7743 18.8277 29.2636 21.4353 26.6757 23.5883L26.6762 23.5889Z" fill="#0D3151"/>
    <path d="M28.3531 2.6915C27.725 2.0658 26.8561 1.67816 25.8961 1.67816C24.9361 1.67816 24.0923 2.05358 23.4665 2.6624L23.439 2.6915C22.8109 3.3172 22.4218 4.18328 22.4218 5.139C22.4218 6.09472 22.7986 6.93578 23.4098 7.55915L23.439 7.58651C24.0672 8.21221 24.9361 8.59985 25.8961 8.59985C26.8561 8.59985 27.7244 8.21221 28.3531 7.58651C28.9824 6.96139 29.3704 6.09589 29.3704 5.139C29.3704 4.18212 28.9813 3.31778 28.3531 2.6915ZM25.8961 0.499512C27.1816 0.499512 28.3467 1.0187 29.1893 1.85859C30.0324 2.69848 30.5536 3.8585 30.5536 5.139C30.5536 6.41951 30.0324 7.57778 29.1893 8.41767V8.42C28.3461 9.25989 27.1816 9.77908 25.8961 9.77908C24.6106 9.77908 23.4455 9.25989 22.6029 8.42L22.5708 8.38508C21.7469 7.54809 21.2385 6.40204 21.2385 5.139C21.2385 3.87596 21.7597 2.6979 22.6029 1.85859L22.638 1.82658C23.4782 1.00589 24.6287 0.499512 25.8967 0.499512L25.8961 0.499512Z" fill="#8BC53F"/>
    <path d="M17.5562 2.6915C16.9281 2.0658 16.0592 1.67816 15.0992 1.67816C14.1392 1.67816 13.2954 2.05358 12.6696 2.6624L12.6422 2.6915C12.014 3.3172 11.6249 4.18328 11.6249 5.139C11.6249 6.09472 12.0018 6.93578 12.613 7.55915L12.6422 7.58651C13.2703 8.21221 14.1392 8.59985 15.0992 8.59985C16.0592 8.59985 16.9275 8.21221 17.5562 7.58651C18.1855 6.96139 18.5735 6.09589 18.5735 5.139C18.5735 4.18212 18.1844 3.31778 17.5562 2.6915ZM15.0992 0.499512C16.3847 0.499512 17.5498 1.0187 18.3924 1.85859C19.2356 2.69848 19.7568 3.8585 19.7568 5.139C19.7568 6.41951 19.2356 7.57778 18.3924 8.41767V8.42C17.5492 9.25989 16.3847 9.77908 15.0992 9.77908C13.8137 9.77908 12.6486 9.25989 11.806 8.42L11.7739 8.38508C10.95 7.54809 10.4417 6.40204 10.4417 5.139C10.4417 3.87596 10.9629 2.6979 11.806 1.85859L11.8411 1.82658C12.6813 1.00589 13.8312 0.499512 15.0992 0.499512Z" fill="#0D3151"/>
    <path d="M52.3154 19.0324C51.7667 18.0819 51.0054 17.2333 50.119 16.5238C49.0012 15.6292 47.8501 14.7765 46.7165 13.9017C45.6209 13.0566 44.5084 12.2044 43.5297 11.2243C42.558 10.2511 41.7008 9.12017 41.4343 7.74654C41.401 7.46658 41.3993 7.1872 41.4267 6.9049C41.4337 6.83098 41.446 6.75823 41.453 6.68431C41.453 6.68256 41.453 6.6814 41.453 6.67965C41.4863 6.52075 41.5185 6.36185 41.5547 6.20412C41.5623 6.16978 41.7306 5.55106 41.4928 5.81997C41.387 5.99633 41.2953 6.17967 41.2164 6.37C41.082 6.65986 40.9587 6.95438 40.8459 7.25355C40.3919 8.41822 39.9566 9.60967 39.6235 10.8203C39.6066 10.8657 39.5897 10.9117 39.5727 10.9571C38.8639 12.8651 38.1832 14.8231 37.7584 16.8172C37.5522 17.7863 37.4201 18.7851 37.5527 19.774C37.6731 20.672 37.9787 21.4578 38.4947 22.2022C38.9358 22.8384 39.4669 23.4094 40.0407 23.928C42.3418 26.0083 45.2312 27.2695 47.6952 29.1263C48.203 29.5087 48.6634 29.9493 49.0076 30.4865C49.1613 30.7269 49.2904 30.9801 49.4008 31.2414C48.4151 31.2985 47.4434 31.2519 46.4682 30.9586C45.289 30.6035 44.142 30.114 43.0651 29.5186C41.9684 28.9127 40.9727 28.17 40.0139 27.3673C39.0293 26.5437 38.1148 25.6515 37.3436 24.6241C36.4729 23.4641 35.7455 22.204 35.1477 20.8845C35.1448 20.8781 35.136 20.8851 35.1232 20.902C34.2485 21.5224 33.4409 22.2663 32.8338 23.1527C32.0468 24.3023 31.4899 25.6643 30.9576 26.9436C30.1898 28.7899 29.5021 30.6704 28.9049 32.579C28.5917 32.7111 28.2861 32.8619 27.9887 33.0225C22.568 35.9543 13.6029 40.2882 7.91875 35.757C5.78191 34.0533 4.67523 31.4609 4.66646 28.7724C1.35633 32.8397 2.50509 40.4413 7.23218 42.9604C10.5522 44.7298 14.6144 44.4201 18.1062 43.3643C21.525 42.3306 24.1568 39.7003 27.5037 38.7207C27.5154 38.7172 27.5271 38.7143 27.5382 38.7108C27.4044 40.7608 27.8672 43.0564 29.5284 44.4347C34.6405 48.6755 40.7244 31.7187 31.0978 32.0534C30.6818 32.0679 30.2967 32.1622 29.8918 32.1308C29.8433 31.1256 32.8052 27.0664 32.9226 27.3225C35.5532 33.0621 41.6645 38.3476 48.3187 37.5764C48.4887 37.5566 48.8043 36.6894 48.8048 36.6882C50.5245 32.7047 52.5894 27.5414 53.1825 23.2342C53.3923 21.7116 53.037 20.2832 52.3154 19.033V19.0324ZM30.1518 30.355C30.1507 30.3608 30.1495 30.366 30.1483 30.3719C30.1483 30.3719 30.1477 30.3719 30.1472 30.3719C30.1483 30.366 30.1501 30.3608 30.1518 30.355Z" fill="#0D3151"/>
    <path d="M53.197 15.3645C53.1951 15.3688 53.1933 15.3738 53.1914 15.3781C53.1939 15.3719 53.1957 15.3676 53.197 15.3645Z" fill="black"/>
  </svg>