<svg width="1440" height="225" viewBox="0 0 1440 225" fill="none" xmlns="http://www.w3.org/2000/svg">
<path d="M18.3222 49.1606L5.66092 59.7178C-1.78569 65.9205 -7.95399 70.437 -13.8382 71.5459C-17.3231 72.2042 -20.8435 71.6371 -24.6835 69.4801C-26.0277 68.7256 -27.4126 67.7737 -28.843 66.604C-29.9083 65.7433 -30.9989 64.761 -32.125 63.6521L-47.1248 48.8973L-28.843 27.2816L-25.6524 23.5094L-14.7006 10.5623C-6.92425 1.3165 2.50068 -0.511388 10.6017 2.09627C14.675 3.40769 18.4388 5.828 21.523 8.99262C24.6122 12.1623 27.0116 16.0662 28.3305 20.3347C31.1458 29.4235 29.0305 40.2338 18.3222 49.1606Z" stroke="#0D3151" stroke-miterlimit="10"/>
<path d="M58.7763 67.2522C57.5386 68.2244 56.3364 69.0345 55.1595 69.6928C51.3246 71.8548 47.7992 72.4169 44.3143 71.7586C38.43 70.6497 32.2617 66.1332 24.8151 59.9305L12.1539 49.3733C1.44557 40.4465 -0.66464 29.6362 2.14559 20.5473C3.46447 16.2789 5.86382 12.375 8.95305 9.20532C12.0372 6.04575 15.8011 3.62038 19.8744 2.30896C27.9754 -0.298693 37.4003 1.53426 45.1817 10.775L56.1335 23.7272L58.548 26.5829" stroke="#8BC53F" stroke-miterlimit="10"/>
<path d="M105.125 49.1606L92.4637 59.7178C85.017 65.9205 78.8487 70.437 72.9645 71.5459C69.4796 72.2042 65.9592 71.6371 62.1192 69.4801C60.775 68.7256 59.3902 67.7737 57.9597 66.604C56.8944 65.7433 55.8038 64.761 54.6777 63.6521L39.678 48.8973L57.9597 27.2816L61.1504 23.5094L72.1022 10.5623C79.8785 1.3165 89.3034 -0.511388 97.4044 2.09627C101.478 3.40769 105.242 5.828 108.326 8.99262C111.415 12.1623 113.814 16.0662 115.133 20.3347C117.948 29.4235 115.833 40.2338 105.125 49.1606Z" stroke="#0D3151" stroke-miterlimit="10"/>
<path d="M145.579 67.2522C144.341 68.2244 143.139 69.0345 141.962 69.6928C138.127 71.8548 134.602 72.4169 131.117 71.7586C125.233 70.6497 119.064 66.1332 111.618 59.9305L98.9566 49.3733C88.2483 40.4465 86.1381 29.6362 88.9483 20.5473C90.2672 16.2789 92.6666 12.375 95.7558 9.20532C98.8399 6.04575 102.604 3.62038 106.677 2.30896C114.778 -0.298693 124.203 1.53426 131.984 10.775L142.936 23.7272L145.351 26.5829" stroke="#8BC53F" stroke-miterlimit="10"/>
<path d="M191.923 49.1607L179.261 59.7179C171.815 65.9205 165.646 70.4371 159.762 71.546C156.277 72.2042 152.757 71.6371 148.917 69.4801C147.573 68.7257 146.188 67.7737 144.757 66.6041C143.692 65.7433 142.601 64.761 141.475 63.6521L126.476 48.8974L144.757 27.2817L147.948 23.5095L158.9 10.5623C166.681 1.32161 176.106 -0.511339 184.207 2.09631C188.28 3.40774 192.044 5.82804 195.128 8.99267C198.218 12.1624 200.617 16.0662 201.936 20.3347C204.751 29.4235 202.636 40.2339 191.928 49.1607H191.923Z" stroke="#0D3151" stroke-miterlimit="10"/>
<path d="M232.377 67.2522C231.139 68.2244 229.937 69.0345 228.76 69.6928C224.925 71.8548 221.4 72.4169 217.915 71.7586C212.03 70.6497 205.862 66.1332 198.415 59.9305L185.754 49.3733C175.046 40.4465 172.936 29.6362 175.746 20.5473C177.065 16.2789 179.464 12.375 182.553 9.20532C185.638 6.04575 189.401 3.62038 193.475 2.30896C201.576 -0.298693 211.001 1.53426 218.782 10.775L229.734 23.7272L232.148 26.5829" stroke="#8BC53F" stroke-miterlimit="10"/>
<path d="M278.725 49.1607L266.064 59.7179C258.617 65.9205 252.449 70.4371 246.565 71.546C243.08 72.2042 239.56 71.6371 235.72 69.4801C234.375 68.7257 232.991 67.7737 231.56 66.6041C230.495 65.7433 229.404 64.761 228.278 63.6521L213.278 48.8974L231.56 27.2817L234.751 23.5095L245.702 10.5623C253.484 1.32161 262.909 -0.511339 271.01 2.09631C275.083 3.40774 278.847 5.82804 281.931 8.99267C285.02 12.1624 287.42 16.0662 288.739 20.3347C291.554 29.4235 289.439 40.2339 278.73 49.1607H278.725Z" stroke="#0D3151" stroke-miterlimit="10"/>
<path d="M319.179 67.2522C317.941 68.2244 316.739 69.0345 315.562 69.6928C311.727 71.8548 308.202 72.4169 304.717 71.7586C298.833 70.6497 292.665 66.1332 285.218 59.9305L272.557 49.3733C261.848 40.4465 259.738 29.6362 262.548 20.5473C263.867 16.2789 266.267 12.375 269.356 9.20532C272.44 6.04575 276.204 3.62038 280.277 2.30896C288.378 -0.298693 297.803 1.53426 305.585 10.775L316.536 23.7272L318.951 26.5829" stroke="#8BC53F" stroke-miterlimit="10"/>
<path d="M365.528 49.1607L352.866 59.7179C345.42 65.9205 339.252 70.4371 333.367 71.546C329.882 72.2042 326.362 71.6371 322.522 69.4801C321.178 68.7257 319.793 67.7737 318.363 66.6041C317.297 65.7433 316.207 64.761 315.081 63.6521L300.081 48.8974L318.363 27.2817L321.553 23.5095L332.505 10.5623C340.286 1.32161 349.711 -0.511339 357.812 2.09631C361.886 3.40774 365.649 5.82804 368.734 8.99267C371.823 12.1624 374.222 16.0662 375.541 20.3347C378.356 29.4235 376.241 40.2339 365.533 49.1607H365.528Z" stroke="#0D3151" stroke-miterlimit="10"/>
<path d="M405.982 67.2522C404.744 68.2244 403.542 69.0345 402.365 69.6928C398.53 71.8548 395.005 72.4169 391.52 71.7586C385.636 70.6497 379.467 66.1332 372.021 59.9305L359.359 49.3733C348.651 40.4465 346.541 29.6362 349.351 20.5473C350.67 16.2789 353.069 12.375 356.159 9.20532C359.243 6.04575 363.007 3.62038 367.08 2.30896C375.181 -0.298693 384.606 1.53426 392.387 10.775L403.339 23.7272L405.754 26.5829" stroke="#8BC53F" stroke-miterlimit="10"/>
<path d="M452.33 49.1607L439.669 59.7179C432.223 65.9205 426.054 70.4371 420.17 71.546C416.685 72.2042 413.165 71.6371 409.325 69.4801C407.981 68.7257 406.596 67.7737 405.165 66.6041C404.1 65.7433 403.009 64.761 401.883 63.6521L386.884 48.8974L405.165 27.2817L408.356 23.5095L419.308 10.5623C427.089 1.32161 436.514 -0.511339 444.615 2.09631C448.688 3.40774 452.452 5.82804 455.536 8.99267C458.626 12.1624 461.025 16.0662 462.344 20.3347C465.159 29.4235 463.044 40.2339 452.336 49.1607H452.33Z" stroke="#0D3151" stroke-miterlimit="10"/>
<path d="M492.785 67.2522C491.547 68.2244 490.345 69.0345 489.168 69.6928C485.333 71.8548 481.807 72.4169 478.323 71.7586C472.438 70.6497 466.27 66.1332 458.823 59.9305L446.162 49.3733C435.454 40.4465 433.344 29.6362 436.154 20.5473C437.473 16.2789 439.872 12.375 442.961 9.20532C446.045 6.04575 449.809 3.62038 453.883 2.30896C461.984 -0.298693 471.409 1.53426 479.19 10.775L490.142 23.7272L492.556 26.5829" stroke="#8BC53F" stroke-miterlimit="10"/>
<path d="M539.133 49.1607L526.472 59.7179C519.025 65.9205 512.857 70.4371 506.973 71.546C503.488 72.2042 499.968 71.6371 496.128 69.4801C494.783 68.7257 493.398 67.7737 491.968 66.6041C490.903 65.7433 489.812 64.761 488.686 63.6521L473.686 48.8974L491.968 27.2817L495.159 23.5095L506.11 10.5623C513.892 1.32161 523.317 -0.511339 531.418 2.09631C535.491 3.40774 539.255 5.82804 542.339 8.99267C545.428 12.1624 547.828 16.0662 549.147 20.3347C551.962 29.4235 549.847 40.2339 539.138 49.1607H539.133Z" stroke="#0D3151" stroke-miterlimit="10"/>
<path d="M579.587 67.2522C578.35 68.2244 577.147 69.0345 575.971 69.6928C572.136 71.8548 568.61 72.4169 565.125 71.7586C559.241 70.6497 553.073 66.1332 545.626 59.9305L532.965 49.3733C522.257 40.4465 520.146 29.6362 522.957 20.5473C524.275 16.2789 526.675 12.375 529.764 9.20532C532.848 6.04575 536.612 3.62038 540.685 2.30896C548.786 -0.298693 558.211 1.53426 565.993 10.775L576.945 23.7272L579.359 26.5829" stroke="#8BC53F" stroke-miterlimit="10"/>
<path d="M625.936 49.1607L613.275 59.7179C605.828 65.9205 599.66 70.4371 593.776 71.546C590.291 72.2042 586.77 71.6371 582.93 69.4801C581.586 68.7257 580.201 67.7737 578.771 66.6041C577.705 65.7433 576.615 64.761 575.489 63.6521L560.489 48.8974L578.771 27.2817L581.961 23.5095L592.913 10.5623C600.695 1.32161 610.119 -0.511339 618.22 2.09631C622.294 3.40774 626.058 5.82804 629.142 8.99267C632.231 12.1624 634.63 16.0662 635.949 20.3347C638.765 29.4235 636.649 40.2339 625.941 49.1607H625.936Z" stroke="#0D3151" stroke-miterlimit="10"/>
<path d="M666.39 67.2522C665.152 68.2244 663.95 69.0345 662.773 69.6928C658.938 71.8548 655.413 72.4169 651.928 71.7586C646.044 70.6497 639.875 66.1332 632.429 59.9305L619.768 49.3733C609.059 40.4465 606.949 29.6362 609.759 20.5473C611.078 16.2789 613.478 12.375 616.567 9.20532C619.651 6.04575 623.415 3.62038 627.488 2.30896C635.589 -0.298693 645.014 1.53426 652.795 10.775L663.747 23.7272L666.162 26.5829" stroke="#8BC53F" stroke-miterlimit="10"/>
<path d="M712.739 49.1607L700.077 59.7179C692.631 65.9205 686.463 70.4371 680.578 71.546C677.093 72.2042 673.573 71.6371 669.733 69.4801C668.389 68.7257 667.004 67.7737 665.573 66.6041C664.508 65.7433 663.418 64.761 662.291 63.6521L647.292 48.8974L665.573 27.2817L668.764 23.5095L679.716 10.5623C687.497 1.32161 696.922 -0.511339 705.023 2.09631C709.097 3.40774 712.86 5.82804 715.945 8.99267C719.034 12.1624 721.433 16.0662 722.752 20.3347C725.567 29.4235 723.452 40.2339 712.744 49.1607H712.739Z" stroke="#0D3151" stroke-miterlimit="10"/>
<path d="M753.193 67.2522C751.955 68.2244 750.753 69.0345 749.576 69.6928C745.741 71.8548 742.215 72.4169 738.731 71.7586C732.846 70.6497 726.678 66.1332 719.231 59.9305L706.57 49.3733C695.862 40.4465 693.752 29.6362 696.562 20.5473C697.881 16.2789 700.28 12.375 703.369 9.20532C706.453 6.04575 710.217 3.62038 714.291 2.30896C722.392 -0.298693 731.817 1.53426 739.598 10.775L750.55 23.7272L752.964 26.5829" stroke="#8BC53F" stroke-miterlimit="10"/>
<path d="M799.541 49.1607L786.88 59.7179C779.433 65.9205 773.265 70.4371 767.381 71.546C763.896 72.2042 760.375 71.6371 756.536 69.4801C755.191 68.7257 753.806 67.7737 752.376 66.6041C751.311 65.7433 750.22 64.761 749.094 63.6521L734.094 48.8974L752.376 27.2817L755.567 23.5095L766.518 10.5623C774.3 1.32161 783.725 -0.511339 791.826 2.09631C795.899 3.40774 799.663 5.82804 802.747 8.99267C805.836 12.1624 808.236 16.0662 809.555 20.3347C812.37 29.4235 810.254 40.2339 799.546 49.1607H799.541Z" stroke="#0D3151" stroke-miterlimit="10"/>
<path d="M839.99 67.2522C838.752 68.2244 837.55 69.0345 836.373 69.6928C832.539 71.8548 829.013 72.4169 825.528 71.7586C819.644 70.6497 813.476 66.1332 806.029 59.9305L793.368 49.3733C782.659 40.4465 780.549 29.6362 783.359 20.5473C784.678 16.2789 787.078 12.375 790.167 9.20532C793.251 6.04575 797.015 3.62038 801.088 2.30896C809.189 -0.298693 818.614 1.53426 826.396 10.775L837.347 23.7272L839.762 26.5829" stroke="#8BC53F" stroke-miterlimit="10"/>
<path d="M886.339 49.1607L873.677 59.7179C866.231 65.9205 860.062 70.4371 854.178 71.546C850.693 72.2042 847.173 71.6371 843.333 69.4801C841.989 68.7257 840.604 67.7737 839.173 66.6041C838.108 65.7433 837.017 64.761 835.891 63.6521L820.892 48.8974L839.173 27.2817L842.364 23.5095L853.316 10.5623C861.097 1.32161 870.522 -0.511339 878.623 2.09631C882.696 3.40774 886.46 5.82804 889.544 8.99267C892.634 12.1624 895.033 16.0662 896.352 20.3347C899.167 29.4235 897.052 40.2339 886.344 49.1607H886.339Z" stroke="#0D3151" stroke-miterlimit="10"/>
<path d="M926.793 67.2522C925.555 68.2244 924.353 69.0345 923.176 69.6928C919.341 71.8548 915.816 72.4169 912.331 71.7586C906.447 70.6497 900.278 66.1332 892.832 59.9305L880.17 49.3733C869.462 40.4465 867.352 29.6362 870.162 20.5473C871.481 16.2789 873.88 12.375 876.97 9.20532C880.054 6.04575 883.818 3.62038 887.891 2.30896C895.992 -0.298693 905.417 1.53426 913.198 10.775L924.15 23.7272L926.565 26.5829" stroke="#8BC53F" stroke-miterlimit="10"/>
<path d="M973.142 49.1607L960.48 59.7179C953.034 65.9205 946.865 70.4371 940.981 71.546C937.496 72.2042 933.976 71.6371 930.136 69.4801C928.792 68.7257 927.407 67.7737 925.976 66.6041C924.911 65.7433 923.82 64.761 922.694 63.6521L907.695 48.8974L925.976 27.2817L929.167 23.5095L940.119 10.5623C947.9 1.32161 957.325 -0.511339 965.426 2.09631C969.499 3.40774 973.263 5.82804 976.347 8.99267C979.437 12.1624 981.836 16.0662 983.155 20.3347C985.97 29.4235 983.855 40.2339 973.147 49.1607H973.142Z" stroke="#0D3151" stroke-miterlimit="10"/>
<path d="M1013.6 67.2522C1012.36 68.2244 1011.16 69.0345 1009.98 69.6928C1006.14 71.8548 1002.62 72.4169 999.133 71.7586C993.249 70.6497 987.081 66.1332 979.634 59.9305L966.973 49.3733C956.265 40.4465 954.154 29.6362 956.965 20.5473C958.284 16.2789 960.683 12.375 963.772 9.20532C966.856 6.04575 970.62 3.62038 974.693 2.30896C982.794 -0.298693 992.219 1.53426 1000 10.775L1010.95 23.7272L1013.37 26.5829" stroke="#8BC53F" stroke-miterlimit="10"/>
<path d="M1059.94 49.1607L1047.28 59.7179C1039.84 65.9205 1033.67 70.4371 1027.78 71.546C1024.3 72.2042 1020.78 71.6371 1016.94 69.4801C1015.59 68.7257 1014.21 67.7737 1012.78 66.6041C1011.71 65.7433 1010.62 64.761 1009.5 63.6521L994.497 48.8974L1012.78 27.2817L1015.97 23.5095L1026.92 10.5623C1034.7 1.32161 1044.13 -0.511339 1052.23 2.09631C1056.3 3.40774 1060.07 5.82804 1063.15 8.99267C1066.24 12.1624 1068.64 16.0662 1069.96 20.3347C1072.77 29.4235 1070.66 40.2339 1059.95 49.1607H1059.94Z" stroke="#0D3151" stroke-miterlimit="10"/>
<path d="M1100.4 67.2522C1099.16 68.2244 1097.96 69.0345 1096.78 69.6928C1092.95 71.8548 1089.42 72.4169 1085.94 71.7586C1080.05 70.6497 1073.88 66.1332 1066.44 59.9305L1053.78 49.3733C1043.07 40.4465 1040.96 29.6362 1043.77 20.5473C1045.09 16.2789 1047.49 12.375 1050.57 9.20532C1053.66 6.04575 1057.42 3.62038 1061.5 2.30896C1069.6 -0.298693 1079.02 1.53426 1086.8 10.775L1097.76 23.7272L1100.17 26.5829" stroke="#8BC53F" stroke-miterlimit="10"/>
<path d="M1146.75 49.1607L1134.09 59.7179C1126.64 65.9205 1120.47 70.4371 1114.59 71.546C1111.1 72.2042 1107.58 71.6371 1103.74 69.4801C1102.4 68.7257 1101.01 67.7737 1099.58 66.6041C1098.52 65.7433 1097.43 64.761 1096.3 63.6521L1081.3 48.8974L1099.58 27.2817L1102.77 23.5095L1113.72 10.5623C1121.51 1.32161 1130.93 -0.511339 1139.03 2.09631C1143.1 3.40774 1146.87 5.82804 1149.95 8.99267C1153.04 12.1624 1155.44 16.0662 1156.76 20.3347C1159.58 29.4235 1157.46 40.2339 1146.75 49.1607H1146.75Z" stroke="#0D3151" stroke-miterlimit="10"/>
<path d="M1187.2 67.2522C1185.96 68.2244 1184.76 69.0345 1183.58 69.6928C1179.75 71.8548 1176.22 72.4169 1172.74 71.7586C1166.85 70.6497 1160.69 66.1332 1153.24 59.9305L1140.58 49.3733C1129.87 40.4465 1127.76 29.6362 1130.57 20.5473C1131.89 16.2789 1134.29 12.375 1137.38 9.20532C1140.46 6.04575 1144.23 3.62038 1148.3 2.30896C1156.4 -0.298693 1165.82 1.53426 1173.61 10.775L1184.56 23.7272L1186.97 26.5829" stroke="#8BC53F" stroke-miterlimit="10"/>
<path d="M1233.55 49.1607L1220.89 59.7179C1213.44 65.9205 1207.27 70.4371 1201.39 71.546C1197.9 72.2042 1194.38 71.6371 1190.54 69.4801C1189.2 68.7257 1187.81 67.7737 1186.38 66.6041C1185.32 65.7433 1184.23 64.761 1183.1 63.6521L1168.1 48.8974L1186.38 27.2817L1189.57 23.5095L1200.53 10.5623C1208.31 1.32161 1217.73 -0.511339 1225.83 2.09631C1229.91 3.40774 1233.67 5.82804 1236.76 8.99267C1239.84 12.1624 1242.24 16.0662 1243.56 20.3347C1246.38 29.4235 1244.26 40.2339 1233.55 49.1607H1233.55Z" stroke="#0D3151" stroke-miterlimit="10"/>
<path d="M1274 67.2522C1272.77 68.2244 1271.56 69.0345 1270.39 69.6928C1266.55 71.8548 1263.03 72.4169 1259.54 71.7586C1253.66 70.6497 1247.49 66.1332 1240.04 59.9305L1227.38 49.3733C1216.67 40.4465 1214.56 29.6362 1217.37 20.5473C1218.69 16.2789 1221.09 12.375 1224.18 9.20532C1227.26 6.04575 1231.03 3.62038 1235.1 2.30896C1243.2 -0.298693 1252.63 1.53426 1260.41 10.775L1271.36 23.7272L1273.78 26.5829" stroke="#8BC53F" stroke-miterlimit="10"/>
<path d="M1320.35 49.1607L1307.69 59.7179C1300.24 65.9205 1294.08 70.4371 1288.19 71.546C1284.71 72.2042 1281.19 71.6371 1277.35 69.4801C1276 68.7257 1274.62 67.7737 1273.19 66.6041C1272.12 65.7433 1271.03 64.761 1269.9 63.6521L1254.91 48.8974L1273.19 27.2817L1276.38 23.5095L1287.33 10.5623C1295.11 1.32161 1304.54 -0.511339 1312.64 2.09631C1316.71 3.40774 1320.47 5.82804 1323.56 8.99267C1326.65 12.1624 1329.05 16.0662 1330.37 20.3347C1333.18 29.4235 1331.07 40.2339 1320.36 49.1607H1320.35Z" stroke="#0D3151" stroke-miterlimit="10"/>
<path d="M1360.81 67.2522C1359.57 68.2244 1358.37 69.0345 1357.19 69.6928C1353.35 71.8548 1349.83 72.4169 1346.34 71.7586C1340.46 70.6497 1334.29 66.1332 1326.84 59.9305L1314.18 49.3733C1303.48 40.4465 1301.37 29.6362 1304.18 20.5473C1305.49 16.2789 1307.89 12.375 1310.98 9.20532C1314.07 6.04575 1317.83 3.62038 1321.9 2.30896C1330.01 -0.298693 1339.43 1.53426 1347.21 10.775L1358.16 23.7272L1360.58 26.5829" stroke="#8BC53F" stroke-miterlimit="10"/>
<path d="M1407.15 49.1607L1394.49 59.7179C1387.05 65.9205 1380.88 70.4371 1374.99 71.546C1371.51 72.2042 1367.99 71.6371 1364.15 69.4801C1362.8 68.7257 1361.42 67.7737 1359.99 66.6041C1358.92 65.7433 1357.83 64.761 1356.71 63.6521L1341.71 48.8974L1359.99 27.2817L1363.18 23.5095L1374.13 10.5623C1381.91 1.32161 1391.34 -0.511339 1399.44 2.09631C1403.51 3.40774 1407.28 5.82804 1410.36 8.99267C1413.45 12.1624 1415.85 16.0662 1417.17 20.3347C1419.98 29.4235 1417.87 40.2339 1407.16 49.1607H1407.15Z" stroke="#0D3151" stroke-miterlimit="10"/>
<path d="M1447.61 67.2522C1446.37 68.2244 1445.17 69.0345 1443.99 69.6928C1440.16 71.8548 1436.63 72.4169 1433.15 71.7586C1427.26 70.6497 1421.09 66.1332 1413.65 59.9305L1400.99 49.3733C1390.28 40.4465 1388.17 29.6362 1390.98 20.5473C1392.3 16.2789 1394.7 12.375 1397.79 9.20532C1400.87 6.04575 1404.63 3.62038 1408.71 2.30896C1416.81 -0.298693 1426.23 1.53426 1434.01 10.775L1444.97 23.7272L1447.38 26.5829" stroke="#8BC53F" stroke-miterlimit="10"/>
<path d="M1493.96 49.1607L1481.3 59.7179C1473.85 65.9205 1467.68 70.4371 1461.8 71.546C1458.31 72.2042 1454.79 71.6371 1450.95 69.4801C1449.61 68.7257 1448.22 67.7737 1446.79 66.6041C1445.73 65.7433 1444.64 64.761 1443.51 63.6521L1428.51 48.8974L1446.79 27.2817L1449.98 23.5095L1460.93 10.5623C1468.72 1.32161 1478.14 -0.511339 1486.24 2.09631C1490.32 3.40774 1494.08 5.82804 1497.16 8.99267C1500.25 12.1624 1502.65 16.0662 1503.97 20.3347C1506.79 29.4235 1504.67 40.2339 1493.96 49.1607H1493.96Z" stroke="#0D3151" stroke-miterlimit="10"/>
<path d="M18.3222 124.98L5.66092 135.537C-1.78569 141.74 -7.95399 146.256 -13.8382 147.365C-17.3231 148.024 -20.8435 147.456 -24.6835 145.299C-26.0277 144.545 -27.4126 143.593 -28.843 142.423C-29.9083 141.563 -30.9989 140.58 -32.125 139.471L-47.1248 124.717L-28.843 103.101L-25.6524 99.3288L-14.7006 86.3817C-6.91917 77.1409 2.50575 75.308 10.6067 77.9157C14.68 79.2271 18.4439 81.6474 21.5281 84.812C24.6173 87.9817 27.0167 91.8856 28.3355 96.154C31.1508 105.243 29.0356 116.053 18.3273 124.98H18.3222Z" stroke="#0D3151" stroke-miterlimit="10"/>
<path d="M58.7763 143.077C57.5386 144.049 56.3364 144.859 55.1595 145.517C51.3246 147.679 47.7992 148.241 44.3143 147.583C38.43 146.474 32.2617 141.958 24.8151 135.755L12.1539 125.198C1.44557 116.271 -0.66464 105.461 2.14559 96.3718C3.46447 92.1034 5.86382 88.1995 8.95305 85.0298C12.0372 81.8702 15.8011 79.4448 19.8744 78.1334C27.9754 75.5258 37.4003 77.3587 45.1817 86.5994L56.1335 99.5516L58.548 102.407" stroke="#8BC53F" stroke-miterlimit="10"/>
<path d="M105.125 124.98L92.4637 135.537C85.017 141.74 78.8487 146.256 72.9645 147.365C69.4796 148.024 65.9592 147.456 62.1192 145.299C60.775 144.545 59.3902 143.593 57.9597 142.423C56.8944 141.563 55.8038 140.58 54.6777 139.471L39.678 124.717L57.9597 103.101L61.1504 99.3288L72.1022 86.3817C79.8836 77.1409 89.3085 75.308 97.4095 77.9157C101.483 79.2271 105.247 81.6474 108.331 84.812C111.42 87.9817 113.819 91.8856 115.138 96.154C117.954 105.243 115.838 116.053 105.13 124.98H105.125Z" stroke="#0D3151" stroke-miterlimit="10"/>
<path d="M145.579 143.077C144.341 144.049 143.139 144.859 141.962 145.517C138.127 147.679 134.602 148.241 131.117 147.583C125.233 146.474 119.064 141.958 111.618 135.755L98.9566 125.198C88.2483 116.271 86.1381 105.461 88.9483 96.3718C90.2672 92.1034 92.6666 88.1995 95.7558 85.0298C98.8399 81.8702 102.604 79.4448 106.677 78.1334C114.778 75.5258 124.203 77.3587 131.984 86.5994L142.936 99.5516L145.351 102.407" stroke="#8BC53F" stroke-miterlimit="10"/>
<path d="M191.923 124.98L179.261 135.537C171.815 141.74 165.646 146.256 159.762 147.365C156.277 148.024 152.757 147.456 148.917 145.299C147.573 144.545 146.188 143.593 144.757 142.423C143.692 141.563 142.601 140.58 141.475 139.471L126.476 124.717L144.757 103.101L147.948 99.3288L158.9 86.3817C166.681 77.1409 176.106 75.308 184.207 77.9157C188.28 79.2271 192.044 81.6474 195.128 84.812C198.218 87.9817 200.617 91.8856 201.936 96.154C204.751 105.243 202.636 116.053 191.928 124.98H191.923Z" stroke="#0D3151" stroke-miterlimit="10"/>
<path d="M232.377 143.077C231.139 144.049 229.937 144.859 228.76 145.517C224.925 147.679 221.4 148.241 217.915 147.583C212.03 146.474 205.862 141.958 198.415 135.755L185.754 125.198C175.046 116.271 172.936 105.461 175.746 96.3718C177.065 92.1034 179.464 88.1995 182.553 85.0298C185.638 81.8702 189.401 79.4448 193.475 78.1334C201.576 75.5258 211.001 77.3587 218.782 86.5994L229.734 99.5516L232.148 102.407" stroke="#8BC53F" stroke-miterlimit="10"/>
<path d="M278.725 124.98L266.064 135.537C258.617 141.74 252.449 146.256 246.565 147.365C243.08 148.024 239.56 147.456 235.72 145.299C234.375 144.545 232.991 143.593 231.56 142.423C230.495 141.563 229.404 140.58 228.278 139.471L213.278 124.717L231.56 103.101L234.751 99.3288L245.702 86.3817C253.484 77.1409 262.909 75.308 271.01 77.9157C275.083 79.2271 278.847 81.6474 281.931 84.812C285.02 87.9817 287.42 91.8856 288.739 96.154C291.554 105.243 289.439 116.053 278.73 124.98H278.725Z" stroke="#0D3151" stroke-miterlimit="10"/>
<path d="M319.179 143.077C317.941 144.049 316.739 144.859 315.562 145.517C311.727 147.679 308.202 148.241 304.717 147.583C298.833 146.474 292.665 141.958 285.218 135.755L272.557 125.198C261.848 116.271 259.738 105.461 262.548 96.3718C263.867 92.1034 266.267 88.1995 269.356 85.0298C272.44 81.8702 276.204 79.4448 280.277 78.1334C288.378 75.5258 297.803 77.3587 305.585 86.5994L316.536 99.5516L318.951 102.407" stroke="#8BC53F" stroke-miterlimit="10"/>
<path d="M365.528 124.98L352.866 135.537C345.42 141.74 339.252 146.256 333.367 147.365C329.882 148.024 326.362 147.456 322.522 145.299C321.178 144.545 319.793 143.593 318.363 142.423C317.297 141.563 316.207 140.58 315.081 139.471L300.081 124.717L318.363 103.101L321.553 99.3288L332.505 86.3817C340.286 77.1409 349.711 75.308 357.812 77.9157C361.886 79.2271 365.649 81.6474 368.734 84.812C371.823 87.9817 374.222 91.8856 375.541 96.154C378.356 105.243 376.241 116.053 365.533 124.98H365.528Z" stroke="#0D3151" stroke-miterlimit="10"/>
<path d="M405.982 143.077C404.744 144.049 403.542 144.859 402.365 145.517C398.53 147.679 395.005 148.241 391.52 147.583C385.636 146.474 379.467 141.958 372.021 135.755L359.359 125.198C348.651 116.271 346.541 105.461 349.351 96.3718C350.67 92.1034 353.069 88.1995 356.159 85.0298C359.243 81.8702 363.007 79.4448 367.08 78.1334C375.181 75.5258 384.606 77.3587 392.387 86.5994L403.339 99.5516L405.754 102.407" stroke="#8BC53F" stroke-miterlimit="10"/>
<path d="M452.33 124.98L439.669 135.537C432.223 141.74 426.054 146.256 420.17 147.365C416.685 148.024 413.165 147.456 409.325 145.299C407.981 144.545 406.596 143.593 405.165 142.423C404.1 141.563 403.009 140.58 401.883 139.471L386.884 124.717L405.165 103.101L408.356 99.3288L419.308 86.3817C427.089 77.1409 436.514 75.308 444.615 77.9157C448.688 79.2271 452.452 81.6474 455.536 84.812C458.626 87.9817 461.025 91.8856 462.344 96.154C465.159 105.243 463.044 116.053 452.336 124.98H452.33Z" stroke="#0D3151" stroke-miterlimit="10"/>
<path d="M492.785 143.077C491.547 144.049 490.345 144.859 489.168 145.517C485.333 147.679 481.807 148.241 478.323 147.583C472.438 146.474 466.27 141.958 458.823 135.755L446.162 125.198C435.454 116.271 433.344 105.461 436.154 96.3718C437.473 92.1034 439.872 88.1995 442.961 85.0298C446.045 81.8702 449.809 79.4448 453.883 78.1334C461.984 75.5258 471.409 77.3587 479.19 86.5994L490.142 99.5516L492.556 102.407" stroke="#8BC53F" stroke-miterlimit="10"/>
<path d="M539.133 124.98L526.472 135.537C519.025 141.74 512.857 146.256 506.973 147.365C503.488 148.024 499.968 147.456 496.128 145.299C494.783 144.545 493.398 143.593 491.968 142.423C490.903 141.563 489.812 140.58 488.686 139.471L473.686 124.717L491.968 103.101L495.159 99.3288L506.11 86.3817C513.892 77.1409 523.317 75.308 531.418 77.9157C535.491 79.2271 539.255 81.6474 542.339 84.812C545.428 87.9817 547.828 91.8856 549.147 96.154C551.962 105.243 549.847 116.053 539.138 124.98H539.133Z" stroke="#0D3151" stroke-miterlimit="10"/>
<path d="M579.587 143.077C578.35 144.049 577.147 144.859 575.971 145.517C572.136 147.679 568.61 148.241 565.125 147.583C559.241 146.474 553.073 141.958 545.626 135.755L532.965 125.198C522.257 116.271 520.146 105.461 522.957 96.3718C524.275 92.1034 526.675 88.1995 529.764 85.0298C532.848 81.8702 536.612 79.4448 540.685 78.1334C548.786 75.5258 558.211 77.3587 565.993 86.5994L576.945 99.5516L579.359 102.407" stroke="#8BC53F" stroke-miterlimit="10"/>
<path d="M625.936 124.98L613.275 135.537C605.828 141.74 599.66 146.256 593.776 147.365C590.291 148.024 586.77 147.456 582.93 145.299C581.586 144.545 580.201 143.593 578.771 142.423C577.705 141.563 576.615 140.58 575.489 139.471L560.489 124.717L578.771 103.101L581.961 99.3288L592.913 86.3817C600.695 77.1409 610.119 75.308 618.22 77.9157C622.294 79.2271 626.058 81.6474 629.142 84.812C632.231 87.9817 634.63 91.8856 635.949 96.154C638.765 105.243 636.649 116.053 625.941 124.98H625.936Z" stroke="#0D3151" stroke-miterlimit="10"/>
<path d="M666.39 143.077C665.152 144.049 663.95 144.859 662.773 145.517C658.938 147.679 655.413 148.241 651.928 147.583C646.044 146.474 639.875 141.958 632.429 135.755L619.768 125.198C609.059 116.271 606.949 105.461 609.759 96.3718C611.078 92.1034 613.478 88.1995 616.567 85.0298C619.651 81.8702 623.415 79.4448 627.488 78.1334C635.589 75.5258 645.014 77.3587 652.795 86.5994L663.747 99.5516L666.162 102.407" stroke="#8BC53F" stroke-miterlimit="10"/>
<path d="M712.739 124.98L700.077 135.537C692.631 141.74 686.463 146.256 680.578 147.365C677.093 148.024 673.573 147.456 669.733 145.299C668.389 144.545 667.004 143.593 665.573 142.423C664.508 141.563 663.418 140.58 662.291 139.471L647.292 124.717L665.573 103.101L668.764 99.3288L679.716 86.3817C687.497 77.1409 696.922 75.308 705.023 77.9157C709.097 79.2271 712.86 81.6474 715.945 84.812C719.034 87.9817 721.433 91.8856 722.752 96.154C725.567 105.243 723.452 116.053 712.744 124.98H712.739Z" stroke="#0D3151" stroke-miterlimit="10"/>
<path d="M753.193 143.077C751.955 144.049 750.753 144.859 749.576 145.517C745.741 147.679 742.215 148.241 738.731 147.583C732.846 146.474 726.678 141.958 719.231 135.755L706.57 125.198C695.862 116.271 693.752 105.461 696.562 96.3718C697.881 92.1034 700.28 88.1995 703.369 85.0298C706.453 81.8702 710.217 79.4448 714.291 78.1334C722.392 75.5258 731.817 77.3587 739.598 86.5994L750.55 99.5516L752.964 102.407" stroke="#8BC53F" stroke-miterlimit="10"/>
<path d="M799.541 124.98L786.88 135.537C779.433 141.74 773.265 146.256 767.381 147.365C763.896 148.024 760.375 147.456 756.536 145.299C755.191 144.545 753.806 143.593 752.376 142.423C751.311 141.563 750.22 140.58 749.094 139.471L734.094 124.717L752.376 103.101L755.567 99.3288L766.518 86.3817C774.3 77.1409 783.725 75.308 791.826 77.9157C795.899 79.2271 799.663 81.6474 802.747 84.812C805.836 87.9817 808.236 91.8856 809.555 96.154C812.37 105.243 810.254 116.053 799.546 124.98H799.541Z" stroke="#0D3151" stroke-miterlimit="10"/>
<path d="M839.99 143.077C838.752 144.049 837.55 144.859 836.373 145.517C832.539 147.679 829.013 148.241 825.528 147.583C819.644 146.474 813.476 141.958 806.029 135.755L793.368 125.198C782.659 116.271 780.549 105.461 783.359 96.3718C784.678 92.1034 787.078 88.1995 790.167 85.0298C793.251 81.8702 797.015 79.4448 801.088 78.1334C809.189 75.5258 818.614 77.3587 826.396 86.5994L837.347 99.5516L839.762 102.407" stroke="#8BC53F" stroke-miterlimit="10"/>
<path d="M886.339 124.98L873.677 135.537C866.231 141.74 860.062 146.256 854.178 147.365C850.693 148.024 847.173 147.456 843.333 145.299C841.989 144.545 840.604 143.593 839.173 142.423C838.108 141.563 837.017 140.58 835.891 139.471L820.892 124.717L839.173 103.101L842.364 99.3288L853.316 86.3817C861.097 77.1409 870.522 75.308 878.623 77.9157C882.696 79.2271 886.46 81.6474 889.544 84.812C892.634 87.9817 895.033 91.8856 896.352 96.154C899.167 105.243 897.052 116.053 886.344 124.98H886.339Z" stroke="#0D3151" stroke-miterlimit="10"/>
<path d="M926.793 143.077C925.555 144.049 924.353 144.859 923.176 145.517C919.341 147.679 915.816 148.241 912.331 147.583C906.447 146.474 900.278 141.958 892.832 135.755L880.17 125.198C869.462 116.271 867.352 105.461 870.162 96.3718C871.481 92.1034 873.88 88.1995 876.97 85.0298C880.054 81.8702 883.818 79.4448 887.891 78.1334C895.992 75.5258 905.417 77.3587 913.198 86.5994L924.15 99.5516L926.565 102.407" stroke="#8BC53F" stroke-miterlimit="10"/>
<path d="M973.142 124.98L960.48 135.537C953.034 141.74 946.865 146.256 940.981 147.365C937.496 148.024 933.976 147.456 930.136 145.299C928.792 144.545 927.407 143.593 925.976 142.423C924.911 141.563 923.82 140.58 922.694 139.471L907.695 124.717L925.976 103.101L929.167 99.3288L940.119 86.3817C947.9 77.1409 957.325 75.308 965.426 77.9157C969.499 79.2271 973.263 81.6474 976.347 84.812C979.437 87.9817 981.836 91.8856 983.155 96.154C985.97 105.243 983.855 116.053 973.147 124.98H973.142Z" stroke="#0D3151" stroke-miterlimit="10"/>
<path d="M1013.6 143.077C1012.36 144.049 1011.16 144.859 1009.98 145.517C1006.14 147.679 1002.62 148.241 999.133 147.583C993.249 146.474 987.081 141.958 979.634 135.755L966.973 125.198C956.265 116.271 954.154 105.461 956.965 96.3718C958.284 92.1034 960.683 88.1995 963.772 85.0298C966.856 81.8702 970.62 79.4448 974.693 78.1334C982.794 75.5258 992.219 77.3587 1000 86.5994L1010.95 99.5516L1013.37 102.407" stroke="#8BC53F" stroke-miterlimit="10"/>
<path d="M1059.94 124.98L1047.28 135.537C1039.84 141.74 1033.67 146.256 1027.78 147.365C1024.3 148.024 1020.78 147.456 1016.94 145.299C1015.59 144.545 1014.21 143.593 1012.78 142.423C1011.71 141.563 1010.62 140.58 1009.5 139.471L994.497 124.717L1012.78 103.101L1015.97 99.3288L1026.92 86.3817C1034.7 77.1409 1044.13 75.308 1052.23 77.9157C1056.3 79.2271 1060.07 81.6474 1063.15 84.812C1066.24 87.9817 1068.64 91.8856 1069.96 96.154C1072.77 105.243 1070.66 116.053 1059.95 124.98H1059.94Z" stroke="#0D3151" stroke-miterlimit="10"/>
<path d="M1100.4 143.077C1099.16 144.049 1097.96 144.859 1096.78 145.517C1092.95 147.679 1089.42 148.241 1085.94 147.583C1080.05 146.474 1073.88 141.958 1066.44 135.755L1053.78 125.198C1043.07 116.271 1040.96 105.461 1043.77 96.3718C1045.09 92.1034 1047.49 88.1995 1050.57 85.0298C1053.66 81.8702 1057.42 79.4448 1061.5 78.1334C1069.6 75.5258 1079.02 77.3587 1086.8 86.5994L1097.76 99.5516L1100.17 102.407" stroke="#8BC53F" stroke-miterlimit="10"/>
<path d="M1146.75 124.98L1134.09 135.537C1126.64 141.74 1120.47 146.256 1114.59 147.365C1111.1 148.024 1107.58 147.456 1103.74 145.299C1102.4 144.545 1101.01 143.593 1099.58 142.423C1098.52 141.563 1097.43 140.58 1096.3 139.471L1081.3 124.717L1099.58 103.101L1102.77 99.3288L1113.72 86.3817C1121.51 77.1409 1130.93 75.308 1139.03 77.9157C1143.1 79.2271 1146.87 81.6474 1149.95 84.812C1153.04 87.9817 1155.44 91.8856 1156.76 96.154C1159.58 105.243 1157.46 116.053 1146.75 124.98H1146.75Z" stroke="#0D3151" stroke-miterlimit="10"/>
<path d="M1187.2 143.077C1185.96 144.049 1184.76 144.859 1183.58 145.517C1179.75 147.679 1176.22 148.241 1172.74 147.583C1166.85 146.474 1160.69 141.958 1153.24 135.755L1140.58 125.198C1129.87 116.271 1127.76 105.461 1130.57 96.3718C1131.89 92.1034 1134.29 88.1995 1137.38 85.0298C1140.46 81.8702 1144.23 79.4448 1148.3 78.1334C1156.4 75.5258 1165.82 77.3587 1173.61 86.5994L1184.56 99.5516L1186.97 102.407" stroke="#8BC53F" stroke-miterlimit="10"/>
<path d="M1233.55 124.98L1220.89 135.537C1213.44 141.74 1207.27 146.256 1201.39 147.365C1197.9 148.024 1194.38 147.456 1190.54 145.299C1189.2 144.545 1187.81 143.593 1186.38 142.423C1185.32 141.563 1184.23 140.58 1183.1 139.471L1168.1 124.717L1186.38 103.101L1189.57 99.3288L1200.53 86.3817C1208.31 77.1409 1217.73 75.308 1225.83 77.9157C1229.91 79.2271 1233.67 81.6474 1236.76 84.812C1239.84 87.9817 1242.24 91.8856 1243.56 96.154C1246.38 105.243 1244.26 116.053 1233.55 124.98H1233.55Z" stroke="#0D3151" stroke-miterlimit="10"/>
<path d="M1274 143.077C1272.77 144.049 1271.56 144.859 1270.39 145.517C1266.55 147.679 1263.03 148.241 1259.54 147.583C1253.66 146.474 1247.49 141.958 1240.04 135.755L1227.38 125.198C1216.67 116.271 1214.56 105.461 1217.37 96.3718C1218.69 92.1034 1221.09 88.1995 1224.18 85.0298C1227.26 81.8702 1231.03 79.4448 1235.1 78.1334C1243.2 75.5258 1252.63 77.3587 1260.41 86.5994L1271.36 99.5516L1273.78 102.407" stroke="#8BC53F" stroke-miterlimit="10"/>
<path d="M1320.35 124.98L1307.69 135.537C1300.24 141.74 1294.08 146.256 1288.19 147.365C1284.71 148.024 1281.19 147.456 1277.35 145.299C1276 144.545 1274.62 143.593 1273.19 142.423C1272.12 141.563 1271.03 140.58 1269.9 139.471L1254.91 124.717L1273.19 103.101L1276.38 99.3288L1287.33 86.3817C1295.11 77.1409 1304.54 75.308 1312.64 77.9157C1316.71 79.2271 1320.47 81.6474 1323.56 84.812C1326.65 87.9817 1329.05 91.8856 1330.37 96.154C1333.18 105.243 1331.07 116.053 1320.36 124.98H1320.35Z" stroke="#0D3151" stroke-miterlimit="10"/>
<path d="M1360.81 143.077C1359.57 144.049 1358.37 144.859 1357.19 145.517C1353.35 147.679 1349.83 148.241 1346.34 147.583C1340.46 146.474 1334.29 141.958 1326.84 135.755L1314.18 125.198C1303.48 116.271 1301.37 105.461 1304.18 96.3718C1305.49 92.1034 1307.89 88.1995 1310.98 85.0298C1314.07 81.8702 1317.83 79.4448 1321.9 78.1334C1330.01 75.5258 1339.43 77.3587 1347.21 86.5994L1358.16 99.5516L1360.58 102.407" stroke="#8BC53F" stroke-miterlimit="10"/>
<path d="M1407.15 124.98L1394.49 135.537C1387.05 141.74 1380.88 146.256 1374.99 147.365C1371.51 148.024 1367.99 147.456 1364.15 145.299C1362.8 144.545 1361.42 143.593 1359.99 142.423C1358.92 141.563 1357.83 140.58 1356.71 139.471L1341.71 124.717L1359.99 103.101L1363.18 99.3288L1374.13 86.3817C1381.91 77.1409 1391.34 75.308 1399.44 77.9157C1403.51 79.2271 1407.28 81.6474 1410.36 84.812C1413.45 87.9817 1415.85 91.8856 1417.17 96.154C1419.98 105.243 1417.87 116.053 1407.16 124.98H1407.15Z" stroke="#0D3151" stroke-miterlimit="10"/>
<path d="M1447.61 143.077C1446.37 144.049 1445.17 144.859 1443.99 145.517C1440.16 147.679 1436.63 148.241 1433.15 147.583C1427.26 146.474 1421.09 141.958 1413.65 135.755L1400.99 125.198C1390.28 116.271 1388.17 105.461 1390.98 96.3718C1392.3 92.1034 1394.7 88.1995 1397.79 85.0298C1400.87 81.8702 1404.63 79.4448 1408.71 78.1334C1416.81 75.5258 1426.23 77.3587 1434.01 86.5994L1444.97 99.5516L1447.38 102.407" stroke="#8BC53F" stroke-miterlimit="10"/>
<path d="M1493.96 124.98L1481.3 135.537C1473.85 141.74 1467.68 146.256 1461.8 147.365C1458.31 148.024 1454.79 147.456 1450.95 145.299C1449.61 144.545 1448.22 143.593 1446.79 142.423C1445.73 141.563 1444.64 140.58 1443.51 139.471L1428.51 124.717L1446.79 103.101L1449.98 99.3288L1460.93 86.3817C1468.72 77.1409 1478.14 75.308 1486.24 77.9157C1490.32 79.2271 1494.08 81.6474 1497.16 84.812C1500.25 87.9817 1502.65 91.8856 1503.97 96.154C1506.79 105.243 1504.67 116.053 1493.96 124.98H1493.96Z" stroke="#0D3151" stroke-miterlimit="10"/>
<path d="M18.3222 200.804L5.66092 211.362C-1.78569 217.564 -7.95399 222.081 -13.8382 223.19C-17.3231 223.848 -20.8435 223.281 -24.6835 221.124C-26.0277 220.369 -27.4126 219.418 -28.843 218.248C-29.9083 217.387 -30.9989 216.405 -32.125 215.296L-47.1248 200.541L-28.843 178.925L-25.6524 175.153L-14.7006 162.206C-6.91917 152.965 2.50575 151.132 10.6067 153.74C14.68 155.052 18.4439 157.472 21.5281 160.636C24.6173 163.806 27.0167 167.71 28.3355 171.978C31.1508 181.067 29.0356 191.878 18.3273 200.804H18.3222Z" stroke="#0D3151" stroke-miterlimit="10"/>
<path d="M58.7763 218.896C57.5386 219.868 56.3364 220.678 55.1595 221.337C51.3246 223.499 47.7992 224.061 44.3143 223.402C38.43 222.294 32.2617 217.777 24.8151 211.574L12.1539 201.017C1.44557 192.09 -0.66464 181.28 2.14559 172.191C3.46447 167.923 5.86382 164.019 8.95305 160.849C12.0372 157.69 15.8011 155.264 19.8744 153.953C27.9754 151.345 37.4003 153.178 45.1817 162.419L56.1335 175.371L58.548 178.227" stroke="#8BC53F" stroke-miterlimit="10"/>
<path d="M105.125 200.804L92.4637 211.362C85.017 217.564 78.8487 222.081 72.9645 223.19C69.4796 223.848 65.9592 223.281 62.1192 221.124C60.775 220.369 59.3902 219.418 57.9597 218.248C56.8944 217.387 55.8038 216.405 54.6777 215.296L39.678 200.541L57.9597 178.925L61.1504 175.153L72.1022 162.206C79.8836 152.965 89.3085 151.132 97.4095 153.74C101.483 155.052 105.247 157.472 108.331 160.636C111.42 163.806 113.819 167.71 115.138 171.978C117.954 181.067 115.838 191.878 105.13 200.804H105.125Z" stroke="#0D3151" stroke-miterlimit="10"/>
<path d="M145.579 218.896C144.341 219.868 143.139 220.678 141.962 221.337C138.127 223.499 134.602 224.061 131.117 223.402C125.233 222.294 119.064 217.777 111.618 211.574L98.9566 201.017C88.2483 192.09 86.1381 181.28 88.9483 172.191C90.2672 167.923 92.6666 164.019 95.7558 160.849C98.8399 157.69 102.604 155.264 106.677 153.953C114.778 151.345 124.203 153.178 131.984 162.419L142.936 175.371L145.351 178.227" stroke="#8BC53F" stroke-miterlimit="10"/>
<path d="M191.923 200.804L179.261 211.362C171.815 217.564 165.646 222.081 159.762 223.19C156.277 223.848 152.757 223.281 148.917 221.124C147.573 220.369 146.188 219.418 144.757 218.248C143.692 217.387 142.601 216.405 141.475 215.296L126.476 200.541L144.757 178.925L147.948 175.153L158.9 162.206C166.681 152.965 176.106 151.132 184.207 153.74C188.28 155.052 192.044 157.472 195.128 160.636C198.218 163.806 200.617 167.71 201.936 171.978C204.751 181.067 202.636 191.878 191.928 200.804H191.923Z" stroke="#0D3151" stroke-miterlimit="10"/>
<path d="M232.377 218.896C231.139 219.868 229.937 220.678 228.76 221.337C224.925 223.499 221.4 224.061 217.915 223.402C212.03 222.294 205.862 217.777 198.415 211.574L185.754 201.017C175.046 192.09 172.936 181.28 175.746 172.191C177.065 167.923 179.464 164.019 182.553 160.849C185.638 157.69 189.401 155.264 193.475 153.953C201.576 151.345 211.001 153.178 218.782 162.419L229.734 175.371L232.148 178.227" stroke="#8BC53F" stroke-miterlimit="10"/>
<path d="M278.725 200.804L266.064 211.362C258.617 217.564 252.449 222.081 246.565 223.19C243.08 223.848 239.56 223.281 235.72 221.124C234.375 220.369 232.991 219.418 231.56 218.248C230.495 217.387 229.404 216.405 228.278 215.296L213.278 200.541L231.56 178.925L234.751 175.153L245.702 162.206C253.484 152.965 262.909 151.132 271.01 153.74C275.083 155.052 278.847 157.472 281.931 160.636C285.02 163.806 287.42 167.71 288.739 171.978C291.554 181.067 289.439 191.878 278.73 200.804H278.725Z" stroke="#0D3151" stroke-miterlimit="10"/>
<path d="M319.179 218.896C317.941 219.868 316.739 220.678 315.562 221.337C311.727 223.499 308.202 224.061 304.717 223.402C298.833 222.294 292.665 217.777 285.218 211.574L272.557 201.017C261.848 192.09 259.738 181.28 262.548 172.191C263.867 167.923 266.267 164.019 269.356 160.849C272.44 157.69 276.204 155.264 280.277 153.953C288.378 151.345 297.803 153.178 305.585 162.419L316.536 175.371L318.951 178.227" stroke="#8BC53F" stroke-miterlimit="10"/>
<path d="M365.528 200.804L352.866 211.362C345.42 217.564 339.252 222.081 333.367 223.19C329.882 223.848 326.362 223.281 322.522 221.124C321.178 220.369 319.793 219.418 318.363 218.248C317.297 217.387 316.207 216.405 315.081 215.296L300.081 200.541L318.363 178.925L321.553 175.153L332.505 162.206C340.286 152.965 349.711 151.132 357.812 153.74C361.886 155.052 365.649 157.472 368.734 160.636C371.823 163.806 374.222 167.71 375.541 171.978C378.356 181.067 376.241 191.878 365.533 200.804H365.528Z" stroke="#0D3151" stroke-miterlimit="10"/>
<path d="M405.982 218.896C404.744 219.868 403.542 220.678 402.365 221.337C398.53 223.499 395.005 224.061 391.52 223.402C385.636 222.294 379.467 217.777 372.021 211.574L359.359 201.017C348.651 192.09 346.541 181.28 349.351 172.191C350.67 167.923 353.069 164.019 356.159 160.849C359.243 157.69 363.007 155.264 367.08 153.953C375.181 151.345 384.606 153.178 392.387 162.419L403.339 175.371L405.754 178.227" stroke="#8BC53F" stroke-miterlimit="10"/>
<path d="M452.33 200.804L439.669 211.362C432.223 217.564 426.054 222.081 420.17 223.19C416.685 223.848 413.165 223.281 409.325 221.124C407.981 220.369 406.596 219.418 405.165 218.248C404.1 217.387 403.009 216.405 401.883 215.296L386.884 200.541L405.165 178.925L408.356 175.153L419.308 162.206C427.089 152.965 436.514 151.132 444.615 153.74C448.688 155.052 452.452 157.472 455.536 160.636C458.626 163.806 461.025 167.71 462.344 171.978C465.159 181.067 463.044 191.878 452.336 200.804H452.33Z" stroke="#0D3151" stroke-miterlimit="10"/>
<path d="M492.785 218.896C491.547 219.868 490.345 220.678 489.168 221.337C485.333 223.499 481.807 224.061 478.323 223.402C472.438 222.294 466.27 217.777 458.823 211.574L446.162 201.017C435.454 192.09 433.344 181.28 436.154 172.191C437.473 167.923 439.872 164.019 442.961 160.849C446.045 157.69 449.809 155.264 453.883 153.953C461.984 151.345 471.409 153.178 479.19 162.419L490.142 175.371L492.556 178.227" stroke="#8BC53F" stroke-miterlimit="10"/>
<path d="M539.133 200.804L526.472 211.362C519.025 217.564 512.857 222.081 506.973 223.19C503.488 223.848 499.968 223.281 496.128 221.124C494.783 220.369 493.398 219.418 491.968 218.248C490.903 217.387 489.812 216.405 488.686 215.296L473.686 200.541L491.968 178.925L495.159 175.153L506.11 162.206C513.892 152.965 523.317 151.132 531.418 153.74C535.491 155.052 539.255 157.472 542.339 160.636C545.428 163.806 547.828 167.71 549.147 171.978C551.962 181.067 549.847 191.878 539.138 200.804H539.133Z" stroke="#0D3151" stroke-miterlimit="10"/>
<path d="M579.587 218.896C578.35 219.868 577.147 220.678 575.971 221.337C572.136 223.499 568.61 224.061 565.125 223.402C559.241 222.294 553.073 217.777 545.626 211.574L532.965 201.017C522.257 192.09 520.146 181.28 522.957 172.191C524.275 167.923 526.675 164.019 529.764 160.849C532.848 157.69 536.612 155.264 540.685 153.953C548.786 151.345 558.211 153.178 565.993 162.419L576.945 175.371L579.359 178.227" stroke="#8BC53F" stroke-miterlimit="10"/>
<path d="M625.936 200.804L613.275 211.362C605.828 217.564 599.66 222.081 593.776 223.19C590.291 223.848 586.77 223.281 582.93 221.124C581.586 220.369 580.201 219.418 578.771 218.248C577.705 217.387 576.615 216.405 575.489 215.296L560.489 200.541L578.771 178.925L581.961 175.153L592.913 162.206C600.695 152.965 610.119 151.132 618.22 153.74C622.294 155.052 626.058 157.472 629.142 160.636C632.231 163.806 634.63 167.71 635.949 171.978C638.765 181.067 636.649 191.878 625.941 200.804H625.936Z" stroke="#0D3151" stroke-miterlimit="10"/>
<path d="M666.39 218.896C665.152 219.868 663.95 220.678 662.773 221.337C658.938 223.499 655.413 224.061 651.928 223.402C646.044 222.294 639.875 217.777 632.429 211.574L619.768 201.017C609.059 192.09 606.949 181.28 609.759 172.191C611.078 167.923 613.478 164.019 616.567 160.849C619.651 157.69 623.415 155.264 627.488 153.953C635.589 151.345 645.014 153.178 652.795 162.419L663.747 175.371L666.162 178.227" stroke="#8BC53F" stroke-miterlimit="10"/>
<path d="M712.739 200.804L700.077 211.362C692.631 217.564 686.463 222.081 680.578 223.19C677.093 223.848 673.573 223.281 669.733 221.124C668.389 220.369 667.004 219.418 665.573 218.248C664.508 217.387 663.418 216.405 662.291 215.296L647.292 200.541L665.573 178.925L668.764 175.153L679.716 162.206C687.497 152.965 696.922 151.132 705.023 153.74C709.097 155.052 712.86 157.472 715.945 160.636C719.034 163.806 721.433 167.71 722.752 171.978C725.567 181.067 723.452 191.878 712.744 200.804H712.739Z" stroke="#0D3151" stroke-miterlimit="10"/>
<path d="M753.193 218.896C751.955 219.868 750.753 220.678 749.576 221.337C745.741 223.499 742.215 224.061 738.731 223.402C732.846 222.294 726.678 217.777 719.231 211.574L706.57 201.017C695.862 192.09 693.752 181.28 696.562 172.191C697.881 167.923 700.28 164.019 703.369 160.849C706.453 157.69 710.217 155.264 714.291 153.953C722.392 151.345 731.817 153.178 739.598 162.419L750.55 175.371L752.964 178.227" stroke="#8BC53F" stroke-miterlimit="10"/>
<path d="M799.541 200.804L786.88 211.362C779.433 217.564 773.265 222.081 767.381 223.19C763.896 223.848 760.375 223.281 756.536 221.124C755.191 220.369 753.806 219.418 752.376 218.248C751.311 217.387 750.22 216.405 749.094 215.296L734.094 200.541L752.376 178.925L755.567 175.153L766.518 162.206C774.3 152.965 783.725 151.132 791.826 153.74C795.899 155.052 799.663 157.472 802.747 160.636C805.836 163.806 808.236 167.71 809.555 171.978C812.37 181.067 810.254 191.878 799.546 200.804H799.541Z" stroke="#0D3151" stroke-miterlimit="10"/>
<path d="M839.99 218.896C838.752 219.868 837.55 220.678 836.373 221.337C832.539 223.499 829.013 224.061 825.528 223.402C819.644 222.294 813.476 217.777 806.029 211.574L793.368 201.017C782.659 192.09 780.549 181.28 783.359 172.191C784.678 167.923 787.078 164.019 790.167 160.849C793.251 157.69 797.015 155.264 801.088 153.953C809.189 151.345 818.614 153.178 826.396 162.419L837.347 175.371L839.762 178.227" stroke="#8BC53F" stroke-miterlimit="10"/>
<path d="M886.339 200.804L873.677 211.362C866.231 217.564 860.062 222.081 854.178 223.19C850.693 223.848 847.173 223.281 843.333 221.124C841.989 220.369 840.604 219.418 839.173 218.248C838.108 217.387 837.017 216.405 835.891 215.296L820.892 200.541L839.173 178.925L842.364 175.153L853.316 162.206C861.097 152.965 870.522 151.132 878.623 153.74C882.696 155.052 886.46 157.472 889.544 160.636C892.634 163.806 895.033 167.71 896.352 171.978C899.167 181.067 897.052 191.878 886.344 200.804H886.339Z" stroke="#0D3151" stroke-miterlimit="10"/>
<path d="M926.793 218.896C925.555 219.868 924.353 220.678 923.176 221.337C919.341 223.499 915.816 224.061 912.331 223.402C906.447 222.294 900.278 217.777 892.832 211.574L880.17 201.017C869.462 192.09 867.352 181.28 870.162 172.191C871.481 167.923 873.88 164.019 876.97 160.849C880.054 157.69 883.818 155.264 887.891 153.953C895.992 151.345 905.417 153.178 913.198 162.419L924.15 175.371L926.565 178.227" stroke="#8BC53F" stroke-miterlimit="10"/>
<path d="M973.142 200.804L960.48 211.362C953.034 217.564 946.865 222.081 940.981 223.19C937.496 223.848 933.976 223.281 930.136 221.124C928.792 220.369 927.407 219.418 925.976 218.248C924.911 217.387 923.82 216.405 922.694 215.296L907.695 200.541L925.976 178.925L929.167 175.153L940.119 162.206C947.9 152.965 957.325 151.132 965.426 153.74C969.499 155.052 973.263 157.472 976.347 160.636C979.437 163.806 981.836 167.71 983.155 171.978C985.97 181.067 983.855 191.878 973.147 200.804H973.142Z" stroke="#0D3151" stroke-miterlimit="10"/>
<path d="M1013.6 218.896C1012.36 219.868 1011.16 220.678 1009.98 221.337C1006.14 223.499 1002.62 224.061 999.133 223.402C993.249 222.294 987.081 217.777 979.634 211.574L966.973 201.017C956.265 192.09 954.154 181.28 956.965 172.191C958.284 167.923 960.683 164.019 963.772 160.849C966.856 157.69 970.62 155.264 974.693 153.953C982.794 151.345 992.219 153.178 1000 162.419L1010.95 175.371L1013.37 178.227" stroke="#8BC53F" stroke-miterlimit="10"/>
<path d="M1059.94 200.804L1047.28 211.362C1039.84 217.564 1033.67 222.081 1027.78 223.19C1024.3 223.848 1020.78 223.281 1016.94 221.124C1015.59 220.369 1014.21 219.418 1012.78 218.248C1011.71 217.387 1010.62 216.405 1009.5 215.296L994.497 200.541L1012.78 178.925L1015.97 175.153L1026.92 162.206C1034.7 152.965 1044.13 151.132 1052.23 153.74C1056.3 155.052 1060.07 157.472 1063.15 160.636C1066.24 163.806 1068.64 167.71 1069.96 171.978C1072.77 181.067 1070.66 191.878 1059.95 200.804H1059.94Z" stroke="#0D3151" stroke-miterlimit="10"/>
<path d="M1100.4 218.896C1099.16 219.868 1097.96 220.678 1096.78 221.337C1092.95 223.499 1089.42 224.061 1085.94 223.402C1080.05 222.294 1073.88 217.777 1066.44 211.574L1053.78 201.017C1043.07 192.09 1040.96 181.28 1043.77 172.191C1045.09 167.923 1047.49 164.019 1050.57 160.849C1053.66 157.69 1057.42 155.264 1061.5 153.953C1069.6 151.345 1079.02 153.178 1086.8 162.419L1097.76 175.371L1100.17 178.227" stroke="#8BC53F" stroke-miterlimit="10"/>
<path d="M1146.75 200.804L1134.09 211.362C1126.64 217.564 1120.47 222.081 1114.59 223.19C1111.1 223.848 1107.58 223.281 1103.74 221.124C1102.4 220.369 1101.01 219.418 1099.58 218.248C1098.52 217.387 1097.43 216.405 1096.3 215.296L1081.3 200.541L1099.58 178.925L1102.77 175.153L1113.72 162.206C1121.51 152.965 1130.93 151.132 1139.03 153.74C1143.1 155.052 1146.87 157.472 1149.95 160.636C1153.04 163.806 1155.44 167.71 1156.76 171.978C1159.58 181.067 1157.46 191.878 1146.75 200.804H1146.75Z" stroke="#0D3151" stroke-miterlimit="10"/>
<path d="M1187.2 218.896C1185.96 219.868 1184.76 220.678 1183.58 221.337C1179.75 223.499 1176.22 224.061 1172.74 223.402C1166.85 222.294 1160.69 217.777 1153.24 211.574L1140.58 201.017C1129.87 192.09 1127.76 181.28 1130.57 172.191C1131.89 167.923 1134.29 164.019 1137.38 160.849C1140.46 157.69 1144.23 155.264 1148.3 153.953C1156.4 151.345 1165.82 153.178 1173.61 162.419L1184.56 175.371L1186.97 178.227" stroke="#8BC53F" stroke-miterlimit="10"/>
<path d="M1233.55 200.804L1220.89 211.362C1213.44 217.564 1207.27 222.081 1201.39 223.19C1197.9 223.848 1194.38 223.281 1190.54 221.124C1189.2 220.369 1187.81 219.418 1186.38 218.248C1185.32 217.387 1184.23 216.405 1183.1 215.296L1168.1 200.541L1186.38 178.925L1189.57 175.153L1200.53 162.206C1208.31 152.965 1217.73 151.132 1225.83 153.74C1229.91 155.052 1233.67 157.472 1236.76 160.636C1239.84 163.806 1242.24 167.71 1243.56 171.978C1246.38 181.067 1244.26 191.878 1233.55 200.804H1233.55Z" stroke="#0D3151" stroke-miterlimit="10"/>
<path d="M1274 218.896C1272.77 219.868 1271.56 220.678 1270.39 221.337C1266.55 223.499 1263.03 224.061 1259.54 223.402C1253.66 222.294 1247.49 217.777 1240.04 211.574L1227.38 201.017C1216.67 192.09 1214.56 181.28 1217.37 172.191C1218.69 167.923 1221.09 164.019 1224.18 160.849C1227.26 157.69 1231.03 155.264 1235.1 153.953C1243.2 151.345 1252.63 153.178 1260.41 162.419L1271.36 175.371L1273.78 178.227" stroke="#8BC53F" stroke-miterlimit="10"/>
<path d="M1320.35 200.804L1307.69 211.362C1300.24 217.564 1294.08 222.081 1288.19 223.19C1284.71 223.848 1281.19 223.281 1277.35 221.124C1276 220.369 1274.62 219.418 1273.19 218.248C1272.12 217.387 1271.03 216.405 1269.9 215.296L1254.91 200.541L1273.19 178.925L1276.38 175.153L1287.33 162.206C1295.11 152.965 1304.54 151.132 1312.64 153.74C1316.71 155.052 1320.47 157.472 1323.56 160.636C1326.65 163.806 1329.05 167.71 1330.37 171.978C1333.18 181.067 1331.07 191.878 1320.36 200.804H1320.35Z" stroke="#0D3151" stroke-miterlimit="10"/>
<path d="M1360.81 218.896C1359.57 219.868 1358.37 220.678 1357.19 221.337C1353.35 223.499 1349.83 224.061 1346.34 223.402C1340.46 222.294 1334.29 217.777 1326.84 211.574L1314.18 201.017C1303.48 192.09 1301.37 181.28 1304.18 172.191C1305.49 167.923 1307.89 164.019 1310.98 160.849C1314.07 157.69 1317.83 155.264 1321.9 153.953C1330.01 151.345 1339.43 153.178 1347.21 162.419L1358.16 175.371L1360.58 178.227" stroke="#8BC53F" stroke-miterlimit="10"/>
<path d="M1407.15 200.804L1394.49 211.362C1387.05 217.564 1380.88 222.081 1374.99 223.19C1371.51 223.848 1367.99 223.281 1364.15 221.124C1362.8 220.369 1361.42 219.418 1359.99 218.248C1358.92 217.387 1357.83 216.405 1356.71 215.296L1341.71 200.541L1359.99 178.925L1363.18 175.153L1374.13 162.206C1381.91 152.965 1391.34 151.132 1399.44 153.74C1403.51 155.052 1407.28 157.472 1410.36 160.636C1413.45 163.806 1415.85 167.71 1417.17 171.978C1419.98 181.067 1417.87 191.878 1407.16 200.804H1407.15Z" stroke="#0D3151" stroke-miterlimit="10"/>
<path d="M1447.61 218.896C1446.37 219.868 1445.17 220.678 1443.99 221.337C1440.16 223.499 1436.63 224.061 1433.15 223.402C1427.26 222.294 1421.09 217.777 1413.65 211.574L1400.99 201.017C1390.28 192.09 1388.17 181.28 1390.98 172.191C1392.3 167.923 1394.7 164.019 1397.79 160.849C1400.87 157.69 1404.63 155.264 1408.71 153.953C1416.81 151.345 1426.23 153.178 1434.01 162.419L1444.97 175.371L1447.38 178.227" stroke="#8BC53F" stroke-miterlimit="10"/>
<path d="M1493.96 200.804L1481.3 211.362C1473.85 217.564 1467.68 222.081 1461.8 223.19C1458.31 223.848 1454.79 223.281 1450.95 221.124C1449.61 220.369 1448.22 219.418 1446.79 218.248C1445.73 217.387 1444.64 216.405 1443.51 215.296L1428.51 200.541L1446.79 178.925L1449.98 175.153L1460.93 162.206C1468.72 152.965 1478.14 151.132 1486.24 153.74C1490.32 155.052 1494.08 157.472 1497.16 160.636C1500.25 163.806 1502.65 167.71 1503.97 171.978C1506.79 181.067 1504.67 191.878 1493.96 200.804H1493.96Z" stroke="#0D3151" stroke-miterlimit="10"/>
</svg>
